<svg width="90" height="80" viewBox="0 0 90 80" fill="none" xmlns="http://www.w3.org/2000/svg">
<path d="M0 70H10V80H0V70Z" fill="#C20001"/>
<path d="M10 70H20V80H10V70Z" fill="#C20001"/>
<path d="M20 50H30V60H20V50Z" fill="#C20001"/>
<path d="M30 50H40V60H30V50Z" fill="#E5882C"/>
<path d="M20 70H30V80H20V70Z" fill="#E5882C"/>
<path d="M70 70H80V80H70V70Z" fill="#E5882C"/>
<path d="M30 70H40V80H30V70Z" fill="#DFC24A"/>
<path d="M40 70H50V80H40V70Z" fill="#DFC24A"/>
<path d="M40 50H50V60H40V50Z" fill="#DFC24A"/>
<path d="M50 70H60V80H50V70Z" fill="#DFC24A"/>
<path d="M50 50H60V60H50V50Z" fill="#E5882C"/>
<path d="M60 70H70V80H60V70Z" fill="#DFC24A"/>
<path d="M30 30H40V40H30V30Z" fill="#C20001"/>
<path d="M0 50H10V60H0V50Z" fill="#C20001"/>
<path d="M10 50H20V60H10V50Z" fill="#C20001"/>
<path d="M30 10H40V20H30V10Z" fill="#C20001"/>
<path d="M10 60H20V70H10V60Z" fill="#C20001"/>
<path d="M20 40H30V50H20V40Z" fill="#C20001"/>
<path d="M30 40H40V50H30V40Z" fill="#E5882C"/>
<path d="M20 60H30V70H20V60Z" fill="#E5882C"/>
<path d="M70 60H80V70H70V60Z" fill="#E5882C"/>
<path d="M30 60H40V70H30V60Z" fill="#DFC24A"/>
<path d="M40 60H50V70H40V60Z" fill="#DFC24A"/>
<path d="M40 40H50V50H40V40Z" fill="#DFC24A"/>
<path d="M40 30H50V40H40V30Z" fill="#E5882C"/>
<path d="M40 20H50V30H40V20Z" fill="#E5882C"/>
<path d="M40 10H50V20H40V10Z" fill="#C20001"/>
<path d="M40 0H50V10H40V0Z" fill="#C20001"/>
<path d="M50 20H60V30H50V20Z" fill="#C20001"/>
<path d="M70 20H80V30H70V20Z" fill="#C20001"/>
<path d="M70 10H80V20H70V10Z" fill="#C20001"/>
<path d="M50 30H60V40H50V30Z" fill="#C20001"/>
<path d="M60 30H70V40H60V30Z" fill="#C20001"/>
<path d="M60 40H70V50H60V40Z" fill="#C20001"/>
<path d="M60 50H70V60H60V50Z" fill="#C20001"/>
<path d="M70 30H80V40H70V30Z" fill="#C20001"/>
<path d="M70 40H80V50H70V40Z" fill="#C20001"/>
<path d="M70 50H80V60H70V50Z" fill="#C20001"/>
<path d="M80 60H90V70H80V60Z" fill="#C20001"/>
<path d="M80 50H90V60H80V50Z" fill="#C20001"/>
<path d="M80 70H90V80H80V70Z" fill="#C20001"/>
<path d="M50 60H60V70H50V60Z" fill="#DFC24A"/>
<path d="M50 40H60V50H50V40Z" fill="#E5882C"/>
<path d="M60 60H70V70H60V60Z" fill="#DFC24A"/>
<path d="M30 20H40V30H30V20Z" fill="#C20001"/>
<path d="M0 40H10V50H0V40Z" fill="#C20001"/>
</svg>
