<svg width="90" height="100" viewBox="0 0 90 100" fill="none" xmlns="http://www.w3.org/2000/svg">
<path d="M90 90H80V100H90V90Z" fill="#C20001"/>
<path d="M80 90H70V100H80V90Z" fill="#C20001"/>
<path d="M70 70H60V80H70V70Z" fill="#C20001"/>
<path d="M60 70H50V80H60V70Z" fill="#E5882C"/>
<path d="M70 90H60V100H70V90Z" fill="#E5882C"/>
<path d="M20 90H10V100H20V90Z" fill="#E5882C"/>
<path d="M60 90H50V100H60V90Z" fill="#DFC24A"/>
<path d="M50 90H40V100H50V90Z" fill="#DFC24A"/>
<path d="M50 70H40V80H50V70Z" fill="#DFC24A"/>
<path d="M40 90H30V100H40V90Z" fill="#DFC24A"/>
<path d="M40 70H30V80H40V70Z" fill="#DFC24A"/>
<path d="M30 90H20V100H30V90Z" fill="#DFC24A"/>
<path d="M70 40H60V50H70V40Z" fill="#C20001"/>
<path d="M60 50H50V60H60V50Z" fill="#C20001"/>
<path d="M90 70H80V80H90V70Z" fill="#C20001"/>
<path d="M80 70H70V80H80V70Z" fill="#C20001"/>
<path d="M70 50H60V60H70V50Z" fill="#C20001"/>
<path d="M70 20H60V30H70V20Z" fill="#C20001"/>
<path d="M60 30H50V40H60V30Z" fill="#C20001"/>
<path d="M90 80H80V90H90V80Z" fill="#C20001"/>
<path d="M80 80H70V90H80V80Z" fill="#C20001"/>
<path d="M70 60H60V70H70V60Z" fill="#C20001"/>
<path d="M60 60H50V70H60V60Z" fill="#E5882C"/>
<path d="M70 80H60V90H70V80Z" fill="#E5882C"/>
<path d="M20 80H10V90H20V80Z" fill="#E5882C"/>
<path d="M60 80H50V90H60V80Z" fill="#DFC24A"/>
<path d="M50 80H40V90H50V80Z" fill="#DFC24A"/>
<path d="M50 60H40V70H50V60Z" fill="#DFC24A"/>
<path d="M50 50H40V60H50V50Z" fill="#DFC24A"/>
<path d="M50 40H40V50H50V40Z" fill="#E5882C"/>
<path d="M50 30H40V40H50V30Z" fill="#C20001"/>
<path d="M50 20H40V30H50V20Z" fill="#C20001"/>
<path d="M40 20H30V30H40V20Z" fill="#C20001"/>
<path d="M40 30H30V40H40V30Z" fill="#C20001"/>
<path d="M40 40H30V50H40V40Z" fill="#C20001"/>
<path d="M30 40H20V50H30V40Z" fill="#C20001"/>
<path d="M20 40H10V50H20V40Z" fill="#C20001"/>
<path d="M20 30H10V40H20V30Z" fill="#C20001"/>
<path d="M40 50H30V60H40V50Z" fill="#C20001"/>
<path d="M30 50H20V60H30V50Z" fill="#C20001"/>
<path d="M30 60H20V70H30V60Z" fill="#C20001"/>
<path d="M30 70H20V80H30V70Z" fill="#C20001"/>
<path d="M20 50H10V60H20V50Z" fill="#C20001"/>
<path d="M20 60H10V70H20V60Z" fill="#C20001"/>
<path d="M10 60H0V70H10V60Z" fill="#C20001"/>
<path d="M10 80H0V90H10V80Z" fill="#C20001"/>
<path d="M20 70H10V80H20V70Z" fill="#C20001"/>
<path d="M10 70H0V80H10V70Z" fill="#C20001"/>
<path d="M10 90H0V100H10V90Z" fill="#C20001"/>
<path d="M40 10H30V20H40V10Z" fill="#C20001"/>
<path d="M40 0H30V10H40V0Z" fill="#C20001"/>
<path d="M40 80H30V90H40V80Z" fill="#DFC24A"/>
<path d="M40 60H30V70H40V60Z" fill="#DFC24A"/>
<path d="M30 80H20V90H30V80Z" fill="#DFC24A"/>
<path d="M70 30H60V40H70V30Z" fill="#C20001"/>
<path d="M60 40H50V50H60V40Z" fill="#C20001"/>
<path d="M90 60H80V70H90V60Z" fill="#C20001"/>
</svg>
