<svg width="2399" height="24" viewBox="0 0 2399 24" fill="none" xmlns="http://www.w3.org/2000/svg">
<path d="M0 23H8" stroke="black" stroke-width="2"/>
<path d="M12 17H20" stroke="black" stroke-width="2"/>
<path d="M28 23H32" stroke="black" stroke-width="2"/>
<path d="M82 21H84" stroke="black" stroke-width="2"/>
<path d="M96 23H104" stroke="black" stroke-width="2"/>
<path d="M110 15H116" stroke="black" stroke-width="2"/>
<path d="M140 21H144" stroke="black" stroke-width="2"/>
<path d="M170 17H172" stroke="black" stroke-width="2"/>
<path d="M180 21H188" stroke="black" stroke-width="2"/>
<path d="M204 17H208" stroke="black" stroke-width="2"/>
<path d="M244 23H246" stroke="black" stroke-width="2"/>
<path d="M274 21H278" stroke="black" stroke-width="2"/>
<path d="M302 15H310" stroke="black" stroke-width="2"/>
<path d="M356 21H358" stroke="black" stroke-width="2"/>
<path d="M364 17H368" stroke="black" stroke-width="2"/>
<path d="M376 21H382" stroke="black" stroke-width="2"/>
<path d="M430 17H432" stroke="black" stroke-width="2"/>
<path d="M452 15H458" stroke="black" stroke-width="2"/>
<path d="M462 19H464" stroke="black" stroke-width="2"/>
<path d="M492 17H494" stroke="black" stroke-width="2"/>
<path d="M524 21H526" stroke="black" stroke-width="2"/>
<path d="M532 21H536" stroke="black" stroke-width="2"/>
<path d="M564 21H570" stroke="black" stroke-width="2"/>
<path d="M598 19H600" stroke="black" stroke-width="2"/>
<path d="M642 17H646" stroke="black" stroke-width="2"/>
<path d="M670 23H676" stroke="black" stroke-width="2"/>
<path d="M706 15H714" stroke="black" stroke-width="2"/>
<path d="M724 17H726" stroke="black" stroke-width="2"/>
<path d="M762 17H768" stroke="black" stroke-width="2"/>
<path d="M820 19H824" stroke="black" stroke-width="2"/>
<path d="M832 23H840" stroke="black" stroke-width="2"/>
<path d="M856 23H858" stroke="black" stroke-width="2"/>
<path d="M876 17H882" stroke="black" stroke-width="2"/>
<path d="M928 21H932" stroke="black" stroke-width="2"/>
<path d="M982 19H984" stroke="black" stroke-width="2"/>
<path d="M994 17H1000" stroke="black" stroke-width="2"/>
<path d="M1030 19H1036" stroke="black" stroke-width="2"/>
<path d="M1048 23H1052" stroke="black" stroke-width="2"/>
<path d="M1090 17H1092" stroke="black" stroke-width="2"/>
<path d="M1098 17H1102" stroke="black" stroke-width="2"/>
<path d="M1126 17H1132" stroke="black" stroke-width="2"/>
<path d="M1144 21H1146" stroke="black" stroke-width="2"/>
<path d="M1150 15H1158" stroke="black" stroke-width="2"/>
<path d="M1176 23H1178" stroke="black" stroke-width="2"/>
<path d="M1200 23H1208" stroke="black" stroke-width="2"/>
<path d="M1212 17H1220" stroke="black" stroke-width="2"/>
<path d="M1228 23H1232" stroke="black" stroke-width="2"/>
<path d="M1282 21H1284" stroke="black" stroke-width="2"/>
<path d="M1296 23H1304" stroke="black" stroke-width="2"/>
<path d="M1310 15H1316" stroke="black" stroke-width="2"/>
<path d="M1340 21H1344" stroke="black" stroke-width="2"/>
<path d="M1370 17H1372" stroke="black" stroke-width="2"/>
<path d="M1380 21H1388" stroke="black" stroke-width="2"/>
<path d="M1404 17H1408" stroke="black" stroke-width="2"/>
<path d="M1444 23H1446" stroke="black" stroke-width="2"/>
<path d="M1474 21H1478" stroke="black" stroke-width="2"/>
<path d="M1502 15H1510" stroke="black" stroke-width="2"/>
<path d="M1556 21H1558" stroke="black" stroke-width="2"/>
<path d="M1564 17H1568" stroke="black" stroke-width="2"/>
<path d="M1576 21H1582" stroke="black" stroke-width="2"/>
<path d="M1630 17H1632" stroke="black" stroke-width="2"/>
<path d="M1652 15H1658" stroke="black" stroke-width="2"/>
<path d="M1662 19H1664" stroke="black" stroke-width="2"/>
<path d="M1692 17H1694" stroke="black" stroke-width="2"/>
<path d="M1724 21H1726" stroke="black" stroke-width="2"/>
<path d="M1732 21H1736" stroke="black" stroke-width="2"/>
<path d="M1764 21H1770" stroke="black" stroke-width="2"/>
<path d="M1798 19H1800" stroke="black" stroke-width="2"/>
<path d="M1842 17H1846" stroke="black" stroke-width="2"/>
<path d="M1870 23H1876" stroke="black" stroke-width="2"/>
<path d="M1906 15H1914" stroke="black" stroke-width="2"/>
<path d="M1924 17H1926" stroke="black" stroke-width="2"/>
<path d="M1962 17H1968" stroke="black" stroke-width="2"/>
<path d="M2020 19H2024" stroke="black" stroke-width="2"/>
<path d="M2032 23H2040" stroke="black" stroke-width="2"/>
<path d="M2056 23H2058" stroke="black" stroke-width="2"/>
<path d="M2076 17H2082" stroke="black" stroke-width="2"/>
<path d="M2128 21H2132" stroke="black" stroke-width="2"/>
<path d="M2182 19H2184" stroke="black" stroke-width="2"/>
<path d="M2194 17H2200" stroke="black" stroke-width="2"/>
<path d="M2230 19H2236" stroke="black" stroke-width="2"/>
<path d="M2248 23H2252" stroke="black" stroke-width="2"/>
<path d="M2290 17H2292" stroke="black" stroke-width="2"/>
<path d="M2298 17H2302" stroke="black" stroke-width="2"/>
<path d="M2326 17H2332" stroke="black" stroke-width="2"/>
<path d="M2344 21H2346" stroke="black" stroke-width="2"/>
<path d="M2350 15H2358" stroke="black" stroke-width="2"/>
<path d="M2376 23H2378" stroke="black" stroke-width="2"/>
<path d="M0 9H1459V7H1461V5H1465V3H1467V1H1478V3H1480V5H1482V7H1486V9H1517V11H1521V13H1544.5V11H1547.5V9H2101V7H2103V5H2107V3H2109V1H2120V3H2122V5H2124V7H2128V9H2149V7H2151V5H2155V3H2157V1H2168V3H2170V5H2172V7H2176V9H2399" stroke="black" stroke-width="2"/>
</svg>
