<svg width="310" height="310" viewBox="0 0 310 310" fill="none" xmlns="http://www.w3.org/2000/svg">
<g clip-path="url(#clip0_39_2027)">
<mask id="mask0_39_2027" style="mask-type:luminance" maskUnits="userSpaceOnUse" x="0" y="0" width="310" height="310">
<path d="M0 0H310V310H0V0Z" fill="white"/>
</mask>
<g mask="url(#mask0_39_2027)">
<path d="M160 20H170V30H160V20Z" fill="#361C1F"/>
<path d="M160 30H170V40H160V30Z" fill="#361C1F"/>
<path d="M150 40H160V50H150V40Z" fill="#361C1F"/>
<path d="M150 50H160V60H150V50Z" fill="#361C1F"/>
<path d="M150 60H160V70H150V60Z" fill="#361C1F"/>
<path d="M160 60H170V70H160V60Z" fill="#361C1F"/>
<path d="M150 70H160V80H150V70Z" fill="#361C1F"/>
<path d="M140 80H150V90H140V80Z" fill="#361C1F"/>
<path d="M160 70H170V80H160V70Z" fill="#361C1F"/>
<path d="M170 70H180V80H170V70Z" fill="#361C1F"/>
<path d="M150 20H160V30H150V20Z" fill="#361C1F"/>
<path d="M150 30H160V40H150V30Z" fill="#361C1F"/>
<path d="M140 40H150V50H140V40Z" fill="#361C1F"/>
<path d="M140 50H150V60H140V50Z" fill="#361C1F"/>
<path d="M140 60H150V70H140V60Z" fill="#361C1F"/>
<path d="M140 70H150V80H140V70Z" fill="#361C1F"/>
<path d="M140 20H150V30H140V20Z" fill="#361C1F"/>
<path d="M140 30H150V40H140V30Z" fill="#361C1F"/>
<path d="M130 30H140V40H130V30Z" fill="#361C1F"/>
<path d="M130 40H140V50H130V40Z" fill="#361C1F"/>
<path d="M130 50H140V60H130V50Z" fill="#361C1F"/>
<path d="M130 60H140V70H130V60Z" fill="#361C1F"/>
<path d="M130 70H140V80H130V70Z" fill="#361C1F"/>
<path d="M130 80H140V90H130V80Z" fill="#361C1F"/>
<path d="M130 90H140V100H130V90Z" fill="#EBC8A2"/>
<path d="M130 100H140V110H130V100Z" fill="#EBC8A2"/>
<path d="M120 100H130V110H120V100Z" fill="#EBC8A2"/>
<path d="M130 110H140V120H130V110Z" fill="#EBC8A2"/>
<path d="M120 110H130V120H120V110Z" fill="#EBC8A2"/>
<path d="M140 90H150V100H140V90Z" fill="#EBC8A2"/>
<path d="M140 100H150V110H140V100Z" fill="#EBC8A2"/>
<path d="M140 110H150V120H140V110Z" fill="#EBC8A2"/>
<path d="M150 90H160V100H150V90Z" fill="#EBC8A2"/>
<path d="M150 100H160V110H150V100Z" fill="#EBC8A2"/>
<path d="M150 110H160V120H150V110Z" fill="#3A1213"/>
<path d="M150 120H160V130H150V120Z" fill="#3A1213"/>
<path d="M150 130H160V140H150V130Z" fill="#3A1213"/>
<path d="M140 120H150V130H140V120Z" fill="#3A1213"/>
<path d="M130 120H140V130H130V120Z" fill="#3A1213"/>
<path d="M120 120H130V130H120V120Z" fill="#3A1213"/>
<path d="M100 130H110V140H100V130Z" fill="#3A1213"/>
<path d="M100 120H110V130H100V120Z" fill="#3A1213"/>
<path d="M140 130H150V140H140V130Z" fill="#3A1213"/>
<path d="M140 140H150V150H140V140Z" fill="#3A1213"/>
<path d="M130 130H140V140H130V130Z" fill="#3A1213"/>
<path d="M130 140H140V150H130V140Z" fill="#3A1213"/>
<path d="M120 130H130V140H120V130Z" fill="#3A1213"/>
<path d="M100 140H110V150H100V140Z" fill="#3A1213"/>
<path d="M90 130H100V140H90V130Z" fill="#3A1213"/>
<path d="M90 120H100V130H90V120Z" fill="#3A1213"/>
<path d="M80 120H90V130H80V120Z" fill="#3A1213"/>
<path d="M80 110H90V120H80V110Z" fill="#3A1213"/>
<path d="M120 140H130V150H120V140Z" fill="#3A1213"/>
<path d="M110 140H120V150H110V140Z" fill="#CFB05F"/>
<path d="M110 170H120V180H110V170Z" fill="#CFB05F"/>
<path d="M110 180H120V190H110V180Z" fill="#CFB05F"/>
<path d="M110 220H120V230H110V220Z" fill="#CFB05F"/>
<path d="M110 230H120V240H110V230Z" fill="#CFB05F"/>
<path d="M110 240H120V250H110V240Z" fill="#CFB05F"/>
<path d="M110 250H120V260H110V250Z" fill="#CFB05F"/>
<path d="M110 260H120V270H110V260Z" fill="#CFB05F"/>
<path d="M110 270H120V280H110V270Z" fill="#CFB05F"/>
<path d="M110 280H120V290H110V280Z" fill="#CFB05F"/>
<path d="M110 290H120V300H110V290Z" fill="#CFB05F"/>
<path d="M110 300H120V310H110V300Z" fill="#CFB05F"/>
<path d="M110 130H120V140H110V130Z" fill="#CFB05F"/>
<path d="M110 160H120V170H110V160Z" fill="#CFB05F"/>
<path d="M110 120H120V130H110V120Z" fill="#CFB05F"/>
<path d="M110 150H120V160H110V150Z" fill="#CFB05F"/>
<path d="M110 110H120V120H110V110Z" fill="#CFB05F"/>
<path d="M110 100H120V110H110V100Z" fill="#CFB05F"/>
<path d="M110 60H120V70H110V60Z" fill="#CFB05F"/>
<path d="M110 90H120V100H110V90Z" fill="#CFB05F"/>
<path d="M110 50H120V60H110V50Z" fill="#CFB05F"/>
<path d="M110 80H120V90H110V80Z" fill="#CFB05F"/>
<path d="M110 40H120V50H110V40Z" fill="#CFB05F"/>
<path d="M110 70H120V80H110V70Z" fill="#CFB05F"/>
<path d="M110 30H120V40H110V30Z" fill="#CFB05F"/>
<path d="M110 20H120V30H110V20Z" fill="#C20001"/>
<path d="M110 10H120V20H110V10Z" fill="#C20001"/>
<path d="M110 0H120V10H110V0Z" fill="#C20001"/>
<path d="M120 10H130V20H120V10Z" fill="#C20001"/>
<path d="M120 20H130V30H120V20Z" fill="#C20001"/>
<path d="M120 0H130V10H120V0Z" fill="#C20001"/>
<path d="M100 10H110V20H100V10Z" fill="#C20001"/>
<path d="M100 20H110V30H100V20Z" fill="#C20001"/>
<path d="M100 0H110V10H100V0Z" fill="#C20001"/>
<path d="M160 110H170V120H160V110Z" fill="#3A1213"/>
<path d="M160 120H170V130H160V120Z" fill="#3A1213"/>
<path d="M170 110H180V120H170V110Z" fill="#3A1213"/>
<path d="M180 110H190V120H180V110Z" fill="#3A1213"/>
<path d="M190 110H200V120H190V110Z" fill="#3A1213"/>
<path d="M180 120H190V130H180V120Z" fill="#3A1213"/>
<path d="M170 120H180V130H170V120Z" fill="#3A1213"/>
<path d="M190 120H200V130H190V120Z" fill="#3A1213"/>
<path d="M190 130H200V140H190V130Z" fill="#3A1213"/>
<path d="M200 120H210V130H200V120Z" fill="#3A1213"/>
<path d="M200 130H210V140H200V130Z" fill="#3A1213"/>
<path d="M210 130H220V140H210V130Z" fill="#3A1213"/>
<path d="M220 130H230V140H220V130Z" fill="#3A1213"/>
<path d="M230 130H240V140H230V130Z" fill="#3A1213"/>
<path d="M230 120H240V130H230V120Z" fill="#3A1213"/>
<path d="M150 80H160V90H150V80Z" fill="#EBC8A2"/>
<path d="M160 90H170V100H160V90Z" fill="#EBC8A2"/>
<path d="M160 100H170V110H160V100Z" fill="#EBC8A2"/>
<path d="M160 80H170V90H160V80Z" fill="#EBC8A2"/>
<path d="M170 90H180V100H170V90Z" fill="#EBC8A2"/>
<path d="M170 100H180V110H170V100Z" fill="#EBC8A2"/>
<path d="M170 130H180V140H170V130Z" fill="#EBC8A2"/>
<path d="M160 130H170V140H160V130Z" fill="#EBC8A2"/>
<path d="M160 140H170V150H160V140Z" fill="#EBC8A2"/>
<path d="M190 180H200V190H190V180Z" fill="#C20001"/>
<path d="M190 190H200V200H190V190Z" fill="#EBC8A2"/>
<path d="M200 190H210V200H200V190Z" fill="#EBC8A2"/>
<path d="M190 200H200V210H190V200Z" fill="#EBC8A2"/>
<path d="M200 200H210V210H200V200Z" fill="#EBC8A2"/>
<path d="M190 210H200V220H190V210Z" fill="#EBC8A2"/>
<path d="M200 210H210V220H200V210Z" fill="#EBC8A2"/>
<path d="M180 190H190V200H180V190Z" fill="#EBC8A2"/>
<path d="M180 200H190V210H180V200Z" fill="#EBC8A2"/>
<path d="M180 210H190V220H180V210Z" fill="#EBC8A2"/>
<path d="M170 190H180V200H170V190Z" fill="#EBC8A2"/>
<path d="M120 190H130V200H120V190Z" fill="#EBC8A2"/>
<path d="M100 190H110V200H100V190Z" fill="#EBC8A2"/>
<path d="M100 200H110V210H100V200Z" fill="#EBC8A2"/>
<path d="M100 210H110V220H100V210Z" fill="#EBC8A2"/>
<path d="M110 190H120V200H110V190Z" fill="#EBC8A2"/>
<path d="M110 200H120V210H110V200Z" fill="#EBC8A2"/>
<path d="M110 210H120V220H110V210Z" fill="#EBC8A2"/>
<path d="M90 190H100V200H90V190Z" fill="#EBC8A2"/>
<path d="M90 200H100V210H90V200Z" fill="#EBC8A2"/>
<path d="M90 210H100V220H90V210Z" fill="#EBC8A2"/>
<path d="M170 180H180V190H170V180Z" fill="#C20001"/>
<path d="M160 180H170V190H160V180Z" fill="#C20001"/>
<path d="M160 190H170V200H160V190Z" fill="#C20001"/>
<path d="M160 200H170V210H160V200Z" fill="#C20001"/>
<path d="M170 200H180V210H170V200Z" fill="#C20001"/>
<path d="M150 180H160V190H150V180Z" fill="#C20001"/>
<path d="M150 190H160V200H150V190Z" fill="#C20001"/>
<path d="M150 200H160V210H150V200Z" fill="#C20001"/>
<path d="M140 180H150V190H140V180Z" fill="#C20001"/>
<path d="M140 190H150V200H140V190Z" fill="#C20001"/>
<path d="M140 200H150V210H140V200Z" fill="#C20001"/>
<path d="M130 180H140V190H130V180Z" fill="#C20001"/>
<path d="M130 190H140V200H130V190Z" fill="#C20001"/>
<path d="M130 200H140V210H130V200Z" fill="#C20001"/>
<path d="M120 200H130V210H120V200Z" fill="#C20001"/>
<path d="M120 180H130V190H120V180Z" fill="#C20001"/>
<path d="M100 180H110V190H100V180Z" fill="#C20001"/>
<path d="M90 180H100V190H90V180Z" fill="#008F5A"/>
<path d="M80 180H90V190H80V180Z" fill="#C20001"/>
<path d="M80 200H90V210H80V200Z" fill="#C20001"/>
<path d="M80 210H90V220H80V210Z" fill="#008F5A"/>
<path d="M170 140H180V150H170V140Z" fill="#E5E5E5"/>
<path d="M160 150H170V160H160V150Z" fill="#E5E5E5"/>
<path d="M150 150H160V160H150V150Z" fill="#E5E5E5"/>
<path d="M130 150H140V160H130V150Z" fill="#E5E5E5"/>
<path d="M130 160H140V170H130V160Z" fill="#E5E5E5"/>
<path d="M130 170H140V180H130V170Z" fill="#E5E5E5"/>
<path d="M150 170H160V180H150V170Z" fill="#E5E5E5"/>
<path d="M170 170H180V180H170V170Z" fill="#E5E5E5"/>
<path d="M180 170H190V180H180V170Z" fill="#C20001"/>
<path d="M180 180H190V190H180V180Z" fill="#C20001"/>
<path d="M190 170H200V180H190V170Z" fill="#C20001"/>
<path d="M200 170H210V180H200V170Z" fill="#C20001"/>
<path d="M120 150H130V160H120V150Z" fill="#E5E5E5"/>
<path d="M120 160H130V170H120V160Z" fill="#E5E5E5"/>
<path d="M120 170H130V180H120V170Z" fill="#E5E5E5"/>
<path d="M100 170H110V180H100V170Z" fill="#E5E5E5"/>
<path d="M100 160H110V170H100V160Z" fill="#E5E5E5"/>
<path d="M100 150H110V160H100V150Z" fill="#E5E5E5"/>
<path d="M90 170H100V180H90V170Z" fill="#E5E5E5"/>
<path d="M90 160H100V170H90V160Z" fill="#E5E5E5"/>
<path d="M90 150H100V160H90V150Z" fill="#E5E5E5"/>
<path d="M80 170H90V180H80V170Z" fill="#E5E5E5"/>
<path d="M70 170H80V180H70V170Z" fill="#E5E5E5"/>
<path d="M70 180H80V190H70V180Z" fill="#E5E5E5"/>
<path d="M70 190H80V200H70V190Z" fill="#E5E5E5"/>
<path d="M70 200H80V210H70V200Z" fill="#E5E5E5"/>
<path d="M60 170H70V180H60V170Z" fill="#E5E5E5"/>
<path d="M50 170H60V180H50V170Z" fill="#E5E5E5"/>
<path d="M60 180H70V190H60V180Z" fill="#E5E5E5"/>
<path d="M50 180H60V190H50V180Z" fill="#E5E5E5"/>
<path d="M60 190H70V200H60V190Z" fill="#E5E5E5"/>
<path d="M50 190H60V200H50V190Z" fill="#E5E5E5"/>
<path d="M60 200H70V210H60V200Z" fill="#4F514B"/>
<path d="M80 160H90V170H80V160Z" fill="#E5E5E5"/>
<path d="M70 160H80V170H70V160Z" fill="#E5E5E5"/>
<path d="M60 160H70V170H60V160Z" fill="#E5E5E5"/>
<path d="M80 150H90V160H80V150Z" fill="#E5E5E5"/>
<path d="M70 150H80V160H70V150Z" fill="#E5E5E5"/>
<path d="M140 170H150V180H140V170Z" fill="#E5E5E5"/>
<path d="M160 170H170V180H160V170Z" fill="#E5E5E5"/>
<path d="M140 160H150V170H140V160Z" fill="#C20001"/>
<path d="M170 150H180V160H170V150Z" fill="#C20001"/>
<path d="M160 160H170V170H160V160Z" fill="#C20001"/>
<path d="M170 160H180V170H170V160Z" fill="#008F5A"/>
<path d="M210 180H220V190H210V180Z" fill="#C20001"/>
<path d="M210 200H220V210H210V200Z" fill="#C20001"/>
<path d="M200 180H210V190H200V180Z" fill="#008F5A"/>
<path d="M80 190H90V200H80V190Z" fill="#008F5A"/>
<path d="M210 190H220V200H210V190Z" fill="#008F5A"/>
<path d="M140 210H150V220H140V210Z" fill="#008F5A"/>
<path d="M140 220H150V230H140V220Z" fill="#008F5A"/>
<path d="M140 230H150V240H140V230Z" fill="#008F5A"/>
<path d="M140 240H150V250H140V240Z" fill="#008F5A"/>
<path d="M140 250H150V260H140V250Z" fill="#008F5A"/>
<path d="M140 260H150V270H140V260Z" fill="#008F5A"/>
<path d="M140 270H150V280H140V270Z" fill="#008F5A"/>
<path d="M130 210H140V220H130V210Z" fill="#008F5A"/>
<path d="M130 220H140V230H130V220Z" fill="#008F5A"/>
<path d="M130 230H140V240H130V230Z" fill="#008F5A"/>
<path d="M130 240H140V250H130V240Z" fill="#008F5A"/>
<path d="M130 250H140V260H130V250Z" fill="#008F5A"/>
<path d="M130 260H140V270H130V260Z" fill="#008F5A"/>
<path d="M130 270H140V280H130V270Z" fill="#008F5A"/>
<path d="M120 210H130V220H120V210Z" fill="#008F5A"/>
<path d="M120 220H130V230H120V220Z" fill="#008F5A"/>
<path d="M100 220H110V230H100V220Z" fill="#008F5A"/>
<path d="M90 220H100V230H90V220Z" fill="#008F5A"/>
<path d="M120 230H130V240H120V230Z" fill="#008F5A"/>
<path d="M100 230H110V240H100V230Z" fill="#008F5A"/>
<path d="M120 240H130V250H120V240Z" fill="#008F5A"/>
<path d="M100 240H110V250H100V240Z" fill="#4F514B"/>
<path d="M90 230H100V240H90V230Z" fill="#4F514B"/>
<path d="M80 220H90V230H80V220Z" fill="#4F514B"/>
<path d="M70 210H80V220H70V210Z" fill="#4F514B"/>
<path d="M120 250H130V260H120V250Z" fill="#008F5A"/>
<path d="M100 250H110V260H100V250Z" fill="#4F514B"/>
<path d="M140 280H150V290H140V280Z" fill="#4F514B"/>
<path d="M120 280H130V290H120V280Z" fill="#4F514B"/>
<path d="M140 290H150V300H140V290Z" fill="#4F514B"/>
<path d="M120 290H130V300H120V290Z" fill="#4F514B"/>
<path d="M100 290H110V300H100V290Z" fill="#4F514B"/>
<path d="M120 300H130V310H120V300Z" fill="#4F514B"/>
<path d="M100 300H110V310H100V300Z" fill="#4F514B"/>
<path d="M90 300H100V310H90V300Z" fill="#4F514B"/>
<path d="M130 280H140V290H130V280Z" fill="#4F514B"/>
<path d="M140 300H150V310H140V300Z" fill="#4F514B"/>
<path d="M130 290H140V300H130V290Z" fill="#4F514B"/>
<path d="M90 240H100V250H90V240Z" fill="#4F514B"/>
<path d="M80 240H90V250H80V240Z" fill="#C7B343"/>
<path d="M80 250H90V260H80V250Z" fill="#C7B343"/>
<path d="M70 240H80V250H70V240Z" fill="#C7B343"/>
<path d="M60 240H70V250H60V240Z" fill="#C7B343"/>
<path d="M70 250H80V260H70V250Z" fill="#C7B343"/>
<path d="M70 260H80V270H70V260Z" fill="#C7B343"/>
<path d="M60 250H70V260H60V250Z" fill="#C7B343"/>
<path d="M50 250H60V260H50V250Z" fill="#C7B343"/>
<path d="M60 260H70V270H60V260Z" fill="#C7B343"/>
<path d="M60 270H70V280H60V270Z" fill="#C7B343"/>
<path d="M50 260H60V270H50V260Z" fill="#C7B343"/>
<path d="M40 260H50V270H40V260Z" fill="#C7B343"/>
<path d="M50 270H60V280H50V270Z" fill="#C7B343"/>
<path d="M50 280H60V290H50V280Z" fill="#C7B343"/>
<path d="M40 270H50V280H40V270Z" fill="#C7B343"/>
<path d="M30 270H40V280H30V270Z" fill="#C7B343"/>
<path d="M20 270H30V280H20V270Z" fill="#C7B343"/>
<path d="M10 270H20V280H10V270Z" fill="#C7B343"/>
<path d="M10 260H20V270H10V260Z" fill="#C7B343"/>
<path d="M0 270H10V280H0V270Z" fill="#C7B343"/>
<path d="M0 260H10V270H0V260Z" fill="#C7B343"/>
<path d="M0 250H10V260H0V250Z" fill="#C7B343"/>
<path d="M40 280H50V290H40V280Z" fill="#C7B343"/>
<path d="M40 290H50V300H40V290Z" fill="#C7B343"/>
<path d="M30 280H40V290H30V280Z" fill="#C7B343"/>
<path d="M20 280H30V290H20V280Z" fill="#C7B343"/>
<path d="M10 280H20V290H10V280Z" fill="#C7B343"/>
<path d="M0 280H10V290H0V280Z" fill="#C7B343"/>
<path d="M30 290H40V300H30V290Z" fill="#C7B343"/>
<path d="M20 290H30V300H20V290Z" fill="#C7B343"/>
<path d="M10 290H20V300H10V290Z" fill="#C7B343"/>
<path d="M80 230H90V240H80V230Z" fill="#4F514B"/>
<path d="M70 230H80V240H70V230Z" fill="#C7B343"/>
<path d="M70 220H80V230H70V220Z" fill="#4F514B"/>
<path d="M90 250H100V260H90V250Z" fill="#008F5A"/>
<path d="M90 260H100V270H90V260Z" fill="#008F5A"/>
<path d="M90 270H100V280H90V270Z" fill="#008F5A"/>
<path d="M80 260H90V270H80V260Z" fill="#008F5A"/>
<path d="M120 260H130V270H120V260Z" fill="#008F5A"/>
<path d="M100 260H110V270H100V260Z" fill="#008F5A"/>
<path d="M120 270H130V280H120V270Z" fill="#008F5A"/>
<path d="M100 270H110V280H100V270Z" fill="#008F5A"/>
<path d="M150 160H160V170H150V160Z" fill="#008F5A"/>
<path d="M140 150H150V160H140V150Z" fill="#008F5A"/>
<path d="M190 140H200V150H190V140Z" fill="#E5E5E5"/>
<path d="M190 150H200V160H190V150Z" fill="#E5E5E5"/>
<path d="M190 160H200V170H190V160Z" fill="#E5E5E5"/>
<path d="M210 140H220V150H210V140Z" fill="#E5E5E5"/>
<path d="M210 150H220V160H210V150Z" fill="#E5E5E5"/>
<path d="M210 160H220V170H210V160Z" fill="#E5E5E5"/>
<path d="M180 140H190V150H180V140Z" fill="#E5E5E5"/>
<path d="M180 150H190V160H180V150Z" fill="#E5E5E5"/>
<path d="M180 160H190V170H180V160Z" fill="#E5E5E5"/>
<path d="M200 140H210V150H200V140Z" fill="#E5E5E5"/>
<path d="M200 150H210V160H200V150Z" fill="#E5E5E5"/>
<path d="M200 160H210V170H200V160Z" fill="#E5E5E5"/>
<path d="M220 140H230V150H220V140Z" fill="#E5E5E5"/>
<path d="M220 150H230V160H220V150Z" fill="#E5E5E5"/>
<path d="M230 150H240V160H230V150Z" fill="#E5E5E5"/>
<path d="M220 160H230V170H220V160Z" fill="#E5E5E5"/>
<path d="M220 170H230V180H220V170Z" fill="#E5E5E5"/>
<path d="M210 170H220V180H210V170Z" fill="#E5E5E5"/>
<path d="M220 180H230V190H220V180Z" fill="#E5E5E5"/>
<path d="M220 190H230V200H220V190Z" fill="#E5E5E5"/>
<path d="M220 200H230V210H220V200Z" fill="#E5E5E5"/>
<path d="M230 160H240V170H230V160Z" fill="#E5E5E5"/>
<path d="M230 170H240V180H230V170Z" fill="#E5E5E5"/>
<path d="M230 180H240V190H230V180Z" fill="#E5E5E5"/>
<path d="M230 190H240V200H230V190Z" fill="#E5E5E5"/>
<path d="M230 200H240V210H230V200Z" fill="#E5E5E5"/>
<path d="M240 160H250V170H240V160Z" fill="#E5E5E5"/>
<path d="M240 170H250V180H240V170Z" fill="#E5E5E5"/>
<path d="M240 180H250V190H240V180Z" fill="#E5E5E5"/>
<path d="M240 190H250V200H240V190Z" fill="#E5E5E5"/>
<path d="M180 130H190V140H180V130Z" fill="#E5E5E5"/>
<path d="M150 140H160V150H150V140Z" fill="#EBC8A2"/>
<path d="M180 90H190V100H180V90Z" fill="#EBC8A2"/>
<path d="M180 100H190V110H180V100Z" fill="#EBC8A2"/>
<path d="M120 50H130V60H120V50Z" fill="#361C1F"/>
<path d="M120 60H130V70H120V60Z" fill="#361C1F"/>
<path d="M120 70H130V80H120V70Z" fill="#361C1F"/>
<path d="M120 80H130V90H120V80Z" fill="#361C1F"/>
<path d="M120 90H130V100H120V90Z" fill="#361C1F"/>
<path d="M100 90H110V100H100V90Z" fill="#361C1F"/>
<path d="M100 100H110V110H100V100Z" fill="#361C1F"/>
<path d="M100 110H110V120H100V110Z" fill="#361C1F"/>
<path d="M120 40H130V50H120V40Z" fill="#361C1F"/>
<path d="M200 220H210V230H200V220Z" fill="#C20001"/>
<path d="M210 220H220V230H210V220Z" fill="#C20001"/>
<path d="M200 230H210V240H200V230Z" fill="#C20001"/>
<path d="M210 230H220V240H210V230Z" fill="#C20001"/>
<path d="M200 240H210V250H200V240Z" fill="#C20001"/>
<path d="M210 240H220V250H210V240Z" fill="#C20001"/>
<path d="M200 250H210V260H200V250Z" fill="#C20001"/>
<path d="M210 250H220V260H210V250Z" fill="#C20001"/>
<path d="M200 260H210V270H200V260Z" fill="#C20001"/>
<path d="M210 260H220V270H210V260Z" fill="#C20001"/>
<path d="M190 220H200V230H190V220Z" fill="#C20001"/>
<path d="M190 230H200V240H190V230Z" fill="#C20001"/>
<path d="M190 240H200V250H190V240Z" fill="#C20001"/>
<path d="M190 250H200V260H190V250Z" fill="#C20001"/>
<path d="M190 260H200V270H190V260Z" fill="#C20001"/>
<path d="M180 220H190V230H180V220Z" fill="#C20001"/>
<path d="M180 230H190V240H180V230Z" fill="#C20001"/>
<path d="M180 240H190V250H180V240Z" fill="#C20001"/>
<path d="M180 250H190V260H180V250Z" fill="#C20001"/>
<path d="M170 250H180V260H170V250Z" fill="#008F5A"/>
<path d="M210 210H220V220H210V210Z" fill="#008F5A"/>
<path d="M170 210H180V220H170V210Z" fill="#008F5A"/>
<path d="M170 220H180V230H170V220Z" fill="#008F5A"/>
<path d="M170 230H180V240H170V230Z" fill="#008F5A"/>
<path d="M170 240H180V250H170V240Z" fill="#008F5A"/>
<path d="M160 210H170V220H160V210Z" fill="#008F5A"/>
<path d="M160 220H170V230H160V220Z" fill="#008F5A"/>
<path d="M160 230H170V240H160V230Z" fill="#008F5A"/>
<path d="M160 240H170V250H160V240Z" fill="#008F5A"/>
<path d="M150 210H160V220H150V210Z" fill="#008F5A"/>
<path d="M150 220H160V230H150V220Z" fill="#008F5A"/>
<path d="M150 230H160V240H150V230Z" fill="#008F5A"/>
<path d="M150 240H160V250H150V240Z" fill="#008F5A"/>
<path d="M280 250V240H290V250H280Z" fill="#4F514B"/>
<path d="M290 250V240H300V250H290Z" fill="#4F514B"/>
<path d="M280 240V230H290V240H280Z" fill="#4F514B"/>
<path d="M280 260V250H290V260H280Z" fill="#4F514B"/>
<path d="M290 240V230H300V240H290Z" fill="#4F514B"/>
<path d="M300 240V230H310V240H300Z" fill="#4F514B"/>
<path d="M300 220V210H310V220H300Z" fill="#4F514B"/>
<path d="M290 230V220H300V230H290Z" fill="#4F514B"/>
<path d="M290 220V210H300V220H290Z" fill="#4F514B"/>
<path d="M300 230V220H310V230H300Z" fill="#4F514B"/>
<path d="M300 210V200H310V210H300Z" fill="#4F514B"/>
<path d="M290 260V250H300V260H290Z" fill="#4F514B"/>
<path d="M300 260V250H310V260H300Z" fill="#4F514B"/>
<path d="M220 210H230V220H220V210Z" fill="#008F5A"/>
<path d="M220 220H230V230H220V220Z" fill="#008F5A"/>
<path d="M220 230H230V240H220V230Z" fill="#008F5A"/>
<path d="M220 240H230V250H220V240Z" fill="#008F5A"/>
<path d="M220 250H230V260H220V250Z" fill="#008F5A"/>
<path d="M220 260H230V270H220V260Z" fill="#008F5A"/>
<path d="M230 210H240V220H230V210Z" fill="#008F5A"/>
<path d="M240 210H250V220H240V210Z" fill="#008F5A"/>
<path d="M250 210H260V220H250V210Z" fill="#008F5A"/>
<path d="M260 210H270V220H260V210Z" fill="#008F5A"/>
<path d="M240 200H250V210H240V200Z" fill="#008F5A"/>
<path d="M250 200H260V210H250V200Z" fill="#008F5A"/>
<path d="M230 220H240V230H230V220Z" fill="#008F5A"/>
<path d="M240 220H250V230H240V220Z" fill="#008F5A"/>
<path d="M250 220H260V230H250V220Z" fill="#008F5A"/>
<path d="M260 220H270V230H260V220Z" fill="#008F5A"/>
<path d="M270 220H280V230H270V220Z" fill="#008F5A"/>
<path d="M230 230H240V240H230V230Z" fill="#008F5A"/>
<path d="M240 230H250V240H240V230Z" fill="#008F5A"/>
<path d="M250 230H260V240H250V230Z" fill="#008F5A"/>
<path d="M260 230H270V240H260V230Z" fill="#008F5A"/>
<path d="M270 230H280V240H270V230Z" fill="#008F5A"/>
<path d="M230 240H240V250H230V240Z" fill="#008F5A"/>
<path d="M230 250H240V260H230V250Z" fill="#008F5A"/>
<path d="M230 260H240V270H230V260Z" fill="#008F5A"/>
<path d="M240 240H250V250H240V240Z" fill="#008F5A"/>
<path d="M250 240H260V250H250V240Z" fill="#008F5A"/>
<path d="M260 240H270V250H260V240Z" fill="#008F5A"/>
<path d="M270 240H280V250H270V240Z" fill="#008F5A"/>
<path d="M240 250H250V260H240V250Z" fill="#008F5A"/>
<path d="M250 250H260V260H250V250Z" fill="#008F5A"/>
<path d="M260 250H270V260H260V250Z" fill="#008F5A"/>
<path d="M270 250H280V260H270V250Z" fill="#008F5A"/>
<path d="M240 260H250V270H240V260Z" fill="#008F5A"/>
<path d="M250 260H260V270H250V260Z" fill="#008F5A"/>
<path d="M260 260H270V270H260V260Z" fill="#008F5A"/>
</g>
</g>
<defs>
<clipPath id="clip0_39_2027">
<rect width="310" height="310" fill="white" transform="matrix(-1 0 0 1 310 0)"/>
</clipPath>
</defs>
</svg>
