<svg xmlns="http://www.w3.org/2000/svg" viewBox="0 0 310 310"><defs><style>.cls-2{fill:#361c1f}.cls-3{fill:#008f5a}.cls-4{fill:#e5e5e5}.cls-5{fill:#c7b343}.cls-6{fill:#c20001}.cls-7{fill:#ebc8a2}.cls-8{fill:#4f514b}.cls-9{fill:#3a1213}</style></defs><g id="Layer_1"><path d="M150 159.9v10h10v-10zM0 0v310h310V0zm170 169.9v-20h20v30h-60v-10zm-20-40v10h10v10h-20v-10h-10v-10zm100 30v10h10v30h-20v10h-10v-30h-30v-30h40v10z" style="fill:none"/><path d="M140 109.9v20h10v10h10v10h10v-60h-10v30h-10v-10z" class="cls-2"/><path d="M170 219.9h10v90h-10z" class="cls-5"/><path d="M170 29.9h10v160h-10z" style="fill:#cfb05f"/><path d="M160-.1h30v30h-30z" class="cls-6"/><path d="M180 119.9v30h30v-10h10v-10h30v10h50v-20h-10v10h-20v-10h-10v-10h-50v10z" class="cls-9"/><path d="M210 139.9v10h20v-10h10v-10h-20v10zM230 189.9v10h10v20h30v-30zM150 189.9v30h30v-20h10v-10z" class="cls-7"/><path d="M240 219.9v40h10v10h30v-50zM160 179.9h10v10h-10z" class="cls-6"/><path d="M150 179.9h10v10h-10z" class="cls-3"/><path d="M140 179.9h10v10h-10zM140 199.9h10v10h-10z" class="cls-6"/><path d="M140 209.9h10v10h-10z" class="cls-3"/><path d="M220 149.9h10v10h-10zM210 149.9h10v10h-10z" class="cls-4"/><path d="M180 149.9v30h60v-10h-40v-20z" class="cls-4"/><path d="M190 189.9v10h-10v10h60v-10h-10v-10h30v-10h10v-10h-30v10h-60v10z" class="cls-6"/><path d="M110 169.9v30h20v10h10v-30h30v-30h-40v10h-10v10z" class="cls-4"/><path d="M200 159.9h10v10h-10zM230 149.9h10v10h-10zM220 159.9h10v10h-10z" class="cls-6"/><path d="M230 159.9h10v10h-10z" class="cls-3"/><path d="M270 179.9h10v10h-10zM270 199.9h10v10h-10z" class="cls-6"/><path d="M260 179.9h10v10h-10zM140 189.9h10v10h-10zM270 189.9h10v10h-10zM270 209.9v10h10v40h10v-10h10v-40zM150 219.9v10h10v10h10v-20z" class="cls-3"/><path d="M130 209.9v20h10v10h10v10h10v10h10v-20h-10v-10h-10v-10h-10v-10zM120 199.9h10v10h-10zM150 299.9v10h20v-20h-10v10zM180 279.9v30h10v-10h10v10h20v-10h10v10h40v-10h-10v-10h-20v-20h-20v10z" class="cls-8"/><path d="M60 249.9v40h10v10h40v-10h10v-10h10v-10h10v-10h10v-20h-10v-10h-10v10h-10v10h-10v10h-10v10H80v-10H70v-10z" class="cls-5"/><path d="M140 259.9v10h10v10h20v-20h-10v-10h-10v10zM180 209.9v70h40v-10h30v-10h-10v-50zM210 159.9h10v10h-10zM200 149.9h10v10h-10z" class="cls-3"/><path d="M230 139.9v10h10v20h30v10h10v30h20v-10h10v-40h-10v-10h-10v-10h-40v-10h-10v10z" class="cls-4"/><path d="M180 99.9v20h30v-10h40v-20h-20v-10h-20v10h-20v10z" class="cls-7"/><path d="M180 39.9v60h10v-10h20v-10h30v-10h-10v-10h-10v-20h10v-20h-30v10h-10v10z" class="cls-2"/><path d="M140 109.9v20h10v10h10v10h10v-30h-20v-10z" class="cls-9"/></g></svg>