<?xml version="1.0" encoding="utf-8"?>
<!-- Generator: Adobe Illustrator 25.0.0, SVG Export Plug-In . SVG Version: 6.00 Build 0)  -->
<svg version="1.1" id="Layer_1" xmlns="http://www.w3.org/2000/svg" xmlns:xlink="http://www.w3.org/1999/xlink" x="0px" y="0px"
	 viewBox="0 0 310 310" style="enable-background:new 0 0 310 310;" xml:space="preserve">
<style type="text/css">
	.st0{fill:#C7B343;}
	.st1{fill:#361C1F;}
	.st2{fill:#3A1213;}
	.st3{fill:#CFB05F;}
	.st4{fill:#C20001;}
	.st5{fill:#EBC8A2;}
	.st6{fill:#008F5A;}
	.st7{fill:#E5E5E5;}
	.st8{fill:#4F514B;}
</style>
<polygon class="st0" points="300,260 300,289.9 290,289.9 290,299.9 250,299.9 250,289.9 240,289.9 240,279.9 230,279.9 230,270 
	270,270 270,269.9 280,269.9 280,260 "/>
<polygon class="st1" points="190,40 190,100 180,100 180,90 160,90 160,80 130,80 130,70 140,70 140,60 150,60 150,40 140,40 
	140,20 170,20 170,30 180,30 180,40 "/>
<polygon class="st2" points="230,110 230,130 220,130 220,140 210,140 210,150 200,150 200,120 220,120 220,110 "/>
<rect x="190" y="220" class="st3" width="10" height="90"/>
<rect x="190" y="30" class="st3" width="10" height="160"/>
<rect x="180" y="0" class="st4" width="30" height="30"/>
<polygon class="st2" points="190,120 190,150 160,150 160,140 150,140 150,130 120,130 120,140 70,140 70,120 80,120 80,130 
	100,130 100,120 110,120 110,110 160,110 160,120 "/>
<polygon class="st5" points="140,190 140,200 130,200 130,220 100,220 100,190 "/>
<polygon class="st5" points="220,190 220,220 190,220 190,200 180,200 180,190 "/>
<polygon class="st4" points="130,220 130,260 120,260 120,270 90,270 90,220 "/>
<rect x="200" y="180" class="st4" width="10" height="10"/>
<rect x="210" y="180" class="st6" width="10" height="10"/>
<rect x="220" y="180" class="st4" width="10" height="10"/>
<rect x="220" y="200" class="st4" width="10" height="10"/>
<polygon class="st6" points="280,220 280,260 270,260 270,269.9 220,269.9 220,270 210,270 210,260 200,260 200,220 220,220 
	220,210 240,210 240,200 260,200 260,210 270,210 270,220 "/>
<rect x="140" y="150" class="st7" width="20" height="10"/>
<polygon class="st7" points="190,150 190,180 130,180 130,170 170,170 170,150 "/>
<polygon class="st4" points="180,190 180,200 190,200 190,210 130,210 130,200 140,200 140,190 110,190 110,180 100,180 100,170 
	130,170 130,180 190,180 190,190 "/>
<polygon class="st7" points="260,170 260,200 240,200 240,210 230,210 230,180 200,180 200,150 240,150 240,160 250,160 250,170 "/>
<rect x="160" y="160" class="st4" width="10" height="10"/>
<rect x="130" y="150" class="st4" width="10" height="10"/>
<rect x="140" y="160" class="st4" width="10" height="10"/>
<rect x="130" y="160" class="st6" width="10" height="10"/>
<rect x="90" y="180" class="st4" width="10" height="10"/>
<rect x="90" y="200" class="st4" width="10" height="10"/>
<rect x="100" y="180" class="st6" width="10" height="10"/>
<rect x="220" y="190" class="st6" width="10" height="10"/>
<rect x="90" y="190" class="st6" width="10" height="10"/>
<polygon class="st6" points="100,210 100,220 90,220 90,270 40,270 40,260 30,260 30,220 40,220 40,210 50,210 50,200 70,200 
	70,210 "/>
<polygon class="st6" points="190,210 190,260 170,260 170,250 140,250 140,260 130,260 130,210 "/>
<polygon class="st8" points="30,230 30,260 0,260 0,250 10,250 10,240 0,240 0,200 10,200 10,210 20,210 20,230 "/>
<polygon class="st8" points="310,200 310,240 300,240 300,250 310,250 310,260 300,260 300,259.9 280,259.9 280,230 290,230 
	290,210 300,210 300,200 "/>
<rect x="150" y="160" class="st6" width="10" height="10"/>
<rect x="160" y="150" class="st6" width="10" height="10"/>
<polygon class="st7" points="140,140 140,150 130,150 130,170 100,170 100,180 90,180 90,210 70,210 70,200 60,200 60,160 70,160 
	70,150 80,150 80,140 120,140 120,130 130,130 130,140 "/>
<polygon class="st5" points="160,140 160,150 140,150 140,140 130,140 130,130 150,130 150,140 "/>
<polygon class="st5" points="190,100 190,120 160,120 160,110 120,110 120,90 140,90 140,80 160,80 160,90 180,90 180,100 "/>
<rect x="200" y="90" class="st1" width="10" height="30"/>
</svg>
