<svg width="310" height="310" viewBox="0 0 310 310" fill="none" xmlns="http://www.w3.org/2000/svg">
<g clip-path="url(#clip0_39_1154)">
<mask id="mask0_39_1154" style="mask-type:luminance" maskUnits="userSpaceOnUse" x="0" y="0" width="310" height="310">
<path d="M0 0H310V310H0V0Z" fill="white"/>
</mask>
<g mask="url(#mask0_39_1154)">
<path d="M90 239.898H100V249.898H90V239.898Z" fill="#C7B343"/>
<path d="M90 249.898H100V259.898H90V249.898Z" fill="#C7B343"/>
<path d="M80 239.898H90V249.898H80V239.898Z" fill="#C7B343"/>
<path d="M70 239.898H80V249.898H70V239.898Z" fill="#C7B343"/>
<path d="M80 249.898H90V259.898H80V249.898Z" fill="#C7B343"/>
<path d="M80 259.898H90V269.898H80V259.898Z" fill="#C7B343"/>
<path d="M70 249.898H80V259.898H70V249.898Z" fill="#C7B343"/>
<path d="M60 249.898H70V259.898H60V249.898Z" fill="#C7B343"/>
<path d="M70 259.898H80V269.898H70V259.898Z" fill="#C7B343"/>
<path d="M70 269.898H80V279.898H70V269.898Z" fill="#C7B343"/>
<path d="M60 259.898H70V269.898H60V259.898Z" fill="#C7B343"/>
<path d="M50 259.898H60V269.898H50V259.898Z" fill="#C7B343"/>
<path d="M60 269.898H70V279.898H60V269.898Z" fill="#C7B343"/>
<path d="M60 279.898H70V289.898H60V279.898Z" fill="#C7B343"/>
<path d="M50 269.898H60V279.898H50V269.898Z" fill="#C7B343"/>
<path d="M40 269.898H50V279.898H40V269.898Z" fill="#C7B343"/>
<path d="M30 269.898H40V279.898H30V269.898Z" fill="#C7B343"/>
<path d="M20 269.898H30V279.898H20V269.898Z" fill="#C7B343"/>
<path d="M20 259.898H30V269.898H20V259.898Z" fill="#C7B343"/>
<path d="M10 269.898H20V279.898H10V269.898Z" fill="#C7B343"/>
<path d="M10 259.898H20V269.898H10V259.898Z" fill="#C7B343"/>
<path d="M10 249.898H20V259.898H10V249.898Z" fill="#C7B343"/>
<path d="M50 279.898H60V289.898H50V279.898Z" fill="#C7B343"/>
<path d="M50 289.898H60V299.898H50V289.898Z" fill="#C7B343"/>
<path d="M40 279.898H50V289.898H40V279.898Z" fill="#C7B343"/>
<path d="M30 279.898H40V289.898H30V279.898Z" fill="#C7B343"/>
<path d="M20 279.898H30V289.898H20V279.898Z" fill="#C7B343"/>
<path d="M10 279.898H20V289.898H10V279.898Z" fill="#C7B343"/>
<path d="M40 289.898H50V299.898H40V289.898Z" fill="#C7B343"/>
<path d="M30 289.898H40V299.898H30V289.898Z" fill="#C7B343"/>
<path d="M20 289.898H30V299.898H20V289.898Z" fill="#C7B343"/>
<path d="M80 229.898H90V239.898H80V229.898Z" fill="#C7B343"/>
<path d="M160 19.8984H170V29.8984H160V19.8984Z" fill="#361C1F"/>
<path d="M160 29.8984H170V39.8984H160V29.8984Z" fill="#361C1F"/>
<path d="M150 39.8984H160V49.8984H150V39.8984Z" fill="#361C1F"/>
<path d="M150 49.8984H160V59.8984H150V49.8984Z" fill="#361C1F"/>
<path d="M150 59.8984H160V69.8984H150V59.8984Z" fill="#361C1F"/>
<path d="M160 59.8984H170V69.8984H160V59.8984Z" fill="#361C1F"/>
<path d="M150 69.8984H160V79.8984H150V69.8984Z" fill="#361C1F"/>
<path d="M140 79.8984H150V89.8984H140V79.8984Z" fill="#361C1F"/>
<path d="M160 69.8984H170V79.8984H160V69.8984Z" fill="#361C1F"/>
<path d="M170 69.8984H180V79.8984H170V69.8984Z" fill="#361C1F"/>
<path d="M150 19.8984H160V29.8984H150V19.8984Z" fill="#361C1F"/>
<path d="M150 29.8984H160V39.8984H150V29.8984Z" fill="#361C1F"/>
<path d="M140 39.8984H150V49.8984H140V39.8984Z" fill="#361C1F"/>
<path d="M140 49.8984H150V59.8984H140V49.8984Z" fill="#361C1F"/>
<path d="M140 59.8984H150V69.8984H140V59.8984Z" fill="#361C1F"/>
<path d="M140 69.8984H150V79.8984H140V69.8984Z" fill="#361C1F"/>
<path d="M140 19.8984H150V29.8984H140V19.8984Z" fill="#361C1F"/>
<path d="M140 29.8984H150V39.8984H140V29.8984Z" fill="#361C1F"/>
<path d="M130 29.8984H140V39.8984H130V29.8984Z" fill="#361C1F"/>
<path d="M130 39.8984H140V49.8984H130V39.8984Z" fill="#361C1F"/>
<path d="M130 49.8984H140V59.8984H130V49.8984Z" fill="#361C1F"/>
<path d="M130 59.8984H140V69.8984H130V59.8984Z" fill="#361C1F"/>
<path d="M130 69.8984H140V79.8984H130V69.8984Z" fill="#361C1F"/>
<path d="M130 79.8984H140V89.8984H130V79.8984Z" fill="#361C1F"/>
<path d="M130 89.8984H140V99.8984H130V89.8984Z" fill="#EBC8A2"/>
<path d="M130 99.8984H140V109.898H130V99.8984Z" fill="#EBC8A2"/>
<path d="M120 99.8984H130V109.898H120V99.8984Z" fill="#EBC8A2"/>
<path d="M130 109.898H140V119.898H130V109.898Z" fill="#EBC8A2"/>
<path d="M120 109.898H130V119.898H120V109.898Z" fill="#EBC8A2"/>
<path d="M140 89.8984H150V99.8984H140V89.8984Z" fill="#EBC8A2"/>
<path d="M140 99.8984H150V109.898H140V99.8984Z" fill="#EBC8A2"/>
<path d="M140 109.898H150V119.898H140V109.898Z" fill="#EBC8A2"/>
<path d="M150 89.8984H160V99.8984H150V89.8984Z" fill="#EBC8A2"/>
<path d="M150 99.8984H160V109.898H150V99.8984Z" fill="#EBC8A2"/>
<path d="M150 109.898H160V119.898H150V109.898Z" fill="#3A1213"/>
<path d="M150 119.898H160V129.898H150V119.898Z" fill="#3A1213"/>
<path d="M150 129.898H160V139.898H150V129.898Z" fill="#3A1213"/>
<path d="M140 119.898H150V129.898H140V119.898Z" fill="#3A1213"/>
<path d="M130 119.898H140V129.898H130V119.898Z" fill="#3A1213"/>
<path d="M120 119.898H130V129.898H120V119.898Z" fill="#3A1213"/>
<path d="M100 129.898H110V139.898H100V129.898Z" fill="#3A1213"/>
<path d="M100 119.898H110V129.898H100V119.898Z" fill="#3A1213"/>
<path d="M140 129.898H150V139.898H140V129.898Z" fill="#3A1213"/>
<path d="M140 139.898H150V149.898H140V139.898Z" fill="#3A1213"/>
<path d="M130 129.898H140V139.898H130V129.898Z" fill="#3A1213"/>
<path d="M130 139.898H140V149.898H130V139.898Z" fill="#3A1213"/>
<path d="M120 129.898H130V139.898H120V129.898Z" fill="#3A1213"/>
<path d="M100 139.898H110V149.898H100V139.898Z" fill="#3A1213"/>
<path d="M90 129.898H100V139.898H90V129.898Z" fill="#3A1213"/>
<path d="M90 119.898H100V129.898H90V119.898Z" fill="#3A1213"/>
<path d="M80 119.898H90V129.898H80V119.898Z" fill="#3A1213"/>
<path d="M80 109.898H90V119.898H80V109.898Z" fill="#3A1213"/>
<path d="M120 139.898H130V149.898H120V139.898Z" fill="#3A1213"/>
<path d="M110 139.898H120V149.898H110V139.898Z" fill="#CFB05F"/>
<path d="M110 169.898H120V179.898H110V169.898Z" fill="#CFB05F"/>
<path d="M110 179.898H120V189.898H110V179.898Z" fill="#CFB05F"/>
<path d="M110 129.898H120V139.898H110V129.898Z" fill="#CFB05F"/>
<path d="M110 159.898H120V169.898H110V159.898Z" fill="#CFB05F"/>
<path d="M110 119.898H120V129.898H110V119.898Z" fill="#CFB05F"/>
<path d="M110 149.898H120V159.898H110V149.898Z" fill="#CFB05F"/>
<path d="M110 109.898H120V119.898H110V109.898Z" fill="#CFB05F"/>
<path d="M110 99.8984H120V109.898H110V99.8984Z" fill="#CFB05F"/>
<path d="M110 59.8984H120V69.8984H110V59.8984Z" fill="#CFB05F"/>
<path d="M110 89.8984H120V99.8984H110V89.8984Z" fill="#CFB05F"/>
<path d="M110 49.8984H120V59.8984H110V49.8984Z" fill="#CFB05F"/>
<path d="M110 79.8984H120V89.8984H110V79.8984Z" fill="#CFB05F"/>
<path d="M110 39.8984H120V49.8984H110V39.8984Z" fill="#CFB05F"/>
<path d="M110 69.8984H120V79.8984H110V69.8984Z" fill="#CFB05F"/>
<path d="M110 29.8984H120V39.8984H110V29.8984Z" fill="#CFB05F"/>
<path d="M110 19.8984H120V29.8984H110V19.8984Z" fill="#C20001"/>
<path d="M110 9.89844H120V19.8984H110V9.89844Z" fill="#C20001"/>
<path d="M110 -0.101562H120V9.89844H110V-0.101562Z" fill="#C20001"/>
<path d="M120 9.89844H130V19.8984H120V9.89844Z" fill="#C20001"/>
<path d="M120 19.8984H130V29.8984H120V19.8984Z" fill="#C20001"/>
<path d="M120 -0.101562H130V9.89844H120V-0.101562Z" fill="#C20001"/>
<path d="M100 9.89844H110V19.8984H100V9.89844Z" fill="#C20001"/>
<path d="M100 19.8984H110V29.8984H100V19.8984Z" fill="#C20001"/>
<path d="M100 -0.101562H110V9.89844H100V-0.101562Z" fill="#C20001"/>
<path d="M160 109.898H170V119.898H160V109.898Z" fill="#3A1213"/>
<path d="M160 119.898H170V129.898H160V119.898Z" fill="#3A1213"/>
<path d="M170 109.898H180V119.898H170V109.898Z" fill="#3A1213"/>
<path d="M180 109.898H190V119.898H180V109.898Z" fill="#3A1213"/>
<path d="M190 109.898H200V119.898H190V109.898Z" fill="#3A1213"/>
<path d="M180 119.898H190V129.898H180V119.898Z" fill="#3A1213"/>
<path d="M170 119.898H180V129.898H170V119.898Z" fill="#3A1213"/>
<path d="M190 119.898H200V129.898H190V119.898Z" fill="#3A1213"/>
<path d="M190 129.898H200V139.898H190V129.898Z" fill="#3A1213"/>
<path d="M200 119.898H210V129.898H200V119.898Z" fill="#3A1213"/>
<path d="M200 129.898H210V139.898H200V129.898Z" fill="#3A1213"/>
<path d="M210 129.898H220V139.898H210V129.898Z" fill="#3A1213"/>
<path d="M220 129.898H230V139.898H220V129.898Z" fill="#3A1213"/>
<path d="M230 129.898H240V139.898H230V129.898Z" fill="#3A1213"/>
<path d="M230 119.898H240V129.898H230V119.898Z" fill="#3A1213"/>
<path d="M150 79.8984H160V89.8984H150V79.8984Z" fill="#EBC8A2"/>
<path d="M160 89.8984H170V99.8984H160V89.8984Z" fill="#EBC8A2"/>
<path d="M160 99.8984H170V109.898H160V99.8984Z" fill="#EBC8A2"/>
<path d="M160 79.8984H170V89.8984H160V79.8984Z" fill="#EBC8A2"/>
<path d="M170 89.8984H180V99.8984H170V89.8984Z" fill="#EBC8A2"/>
<path d="M170 99.8984H180V109.898H170V99.8984Z" fill="#EBC8A2"/>
<path d="M170 129.898H180V139.898H170V129.898Z" fill="#EBC8A2"/>
<path d="M160 129.898H170V139.898H160V129.898Z" fill="#EBC8A2"/>
<path d="M160 139.898H170V149.898H160V139.898Z" fill="#EBC8A2"/>
<path d="M190 179.898H200V189.898H190V179.898Z" fill="#C20001"/>
<path d="M190 189.898H200V199.898H190V189.898Z" fill="#EBC8A2"/>
<path d="M200 189.898H210V199.898H200V189.898Z" fill="#EBC8A2"/>
<path d="M190 199.898H200V209.898H190V199.898Z" fill="#EBC8A2"/>
<path d="M200 199.898H210V209.898H200V199.898Z" fill="#EBC8A2"/>
<path d="M190 209.898H200V219.898H190V209.898Z" fill="#EBC8A2"/>
<path d="M200 209.898H210V219.898H200V209.898Z" fill="#EBC8A2"/>
<path d="M180 189.898H190V199.898H180V189.898Z" fill="#EBC8A2"/>
<path d="M180 199.898H190V209.898H180V199.898Z" fill="#EBC8A2"/>
<path d="M180 209.898H190V219.898H180V209.898Z" fill="#EBC8A2"/>
<path d="M170 189.898H180V199.898H170V189.898Z" fill="#EBC8A2"/>
<path d="M120 189.898H130V199.898H120V189.898Z" fill="#EBC8A2"/>
<path d="M100 189.898H110V199.898H100V189.898Z" fill="#EBC8A2"/>
<path d="M100 199.898H110V209.898H100V199.898Z" fill="#EBC8A2"/>
<path d="M100 209.898H110V219.898H100V209.898Z" fill="#EBC8A2"/>
<path d="M110 189.898H120V199.898H110V189.898Z" fill="#EBC8A2"/>
<path d="M110 199.898H120V209.898H110V199.898Z" fill="#EBC8A2"/>
<path d="M110 209.898H120V219.898H110V209.898Z" fill="#EBC8A2"/>
<path d="M90 189.898H100V199.898H90V189.898Z" fill="#EBC8A2"/>
<path d="M90 199.898H100V209.898H90V199.898Z" fill="#EBC8A2"/>
<path d="M90 209.898H100V219.898H90V209.898Z" fill="#EBC8A2"/>
<path d="M170 179.898H180V189.898H170V179.898Z" fill="#C20001"/>
<path d="M160 179.898H170V189.898H160V179.898Z" fill="#C20001"/>
<path d="M160 189.898H170V199.898H160V189.898Z" fill="#C20001"/>
<path d="M160 199.898H170V209.898H160V199.898Z" fill="#C20001"/>
<path d="M170 199.898H180V209.898H170V199.898Z" fill="#C20001"/>
<path d="M200 219.898H210V229.898H200V219.898Z" fill="#C20001"/>
<path d="M210 219.898H220V229.898H210V219.898Z" fill="#C20001"/>
<path d="M200 229.898H210V239.898H200V229.898Z" fill="#C20001"/>
<path d="M210 229.898H220V239.898H210V229.898Z" fill="#C20001"/>
<path d="M200 239.898H210V249.898H200V239.898Z" fill="#C20001"/>
<path d="M210 239.898H220V249.898H210V239.898Z" fill="#C20001"/>
<path d="M200 249.898H210V259.898H200V249.898Z" fill="#C20001"/>
<path d="M210 249.898H220V259.898H210V249.898Z" fill="#C20001"/>
<path d="M200 259.898H210V269.898H200V259.898Z" fill="#C20001"/>
<path d="M210 259.898H220V269.898H210V259.898Z" fill="#C20001"/>
<path d="M190 219.898H200V229.898H190V219.898Z" fill="#C20001"/>
<path d="M190 229.898H200V239.898H190V229.898Z" fill="#C20001"/>
<path d="M190 239.898H200V249.898H190V239.898Z" fill="#C20001"/>
<path d="M190 249.898H200V259.898H190V249.898Z" fill="#C20001"/>
<path d="M190 259.898H200V269.898H190V259.898Z" fill="#C20001"/>
<path d="M180 219.898H190V229.898H180V219.898Z" fill="#C20001"/>
<path d="M180 229.898H190V239.898H180V229.898Z" fill="#C20001"/>
<path d="M180 239.898H190V249.898H180V239.898Z" fill="#C20001"/>
<path d="M180 249.898H190V259.898H180V249.898Z" fill="#C20001"/>
<path d="M170 259.898H180V269.898H170V259.898Z" fill="#008F5A"/>
<path d="M170 249.898H180V259.898H170V249.898Z" fill="#008F5A"/>
<path d="M150 179.898H160V189.898H150V179.898Z" fill="#C20001"/>
<path d="M150 189.898H160V199.898H150V189.898Z" fill="#C20001"/>
<path d="M150 199.898H160V209.898H150V199.898Z" fill="#C20001"/>
<path d="M140 179.898H150V189.898H140V179.898Z" fill="#C20001"/>
<path d="M140 189.898H150V199.898H140V189.898Z" fill="#C20001"/>
<path d="M140 199.898H150V209.898H140V199.898Z" fill="#C20001"/>
<path d="M130 179.898H140V189.898H130V179.898Z" fill="#C20001"/>
<path d="M130 189.898H140V199.898H130V189.898Z" fill="#C20001"/>
<path d="M130 199.898H140V209.898H130V199.898Z" fill="#C20001"/>
<path d="M120 199.898H130V209.898H120V199.898Z" fill="#C20001"/>
<path d="M120 179.898H130V189.898H120V179.898Z" fill="#C20001"/>
<path d="M100 179.898H110V189.898H100V179.898Z" fill="#C20001"/>
<path d="M90 179.898H100V189.898H90V179.898Z" fill="#008F5A"/>
<path d="M80 179.898H90V189.898H80V179.898Z" fill="#C20001"/>
<path d="M170 139.898H180V149.898H170V139.898Z" fill="#E5E5E5"/>
<path d="M160 149.898H170V159.898H160V149.898Z" fill="#E5E5E5"/>
<path d="M150 149.898H160V159.898H150V149.898Z" fill="#E5E5E5"/>
<path d="M130 149.898H140V159.898H130V149.898Z" fill="#E5E5E5"/>
<path d="M130 159.898H140V169.898H130V159.898Z" fill="#E5E5E5"/>
<path d="M130 169.898H140V179.898H130V169.898Z" fill="#E5E5E5"/>
<path d="M150 169.898H160V179.898H150V169.898Z" fill="#E5E5E5"/>
<path d="M170 169.898H180V179.898H170V169.898Z" fill="#E5E5E5"/>
<path d="M180 169.898H190V179.898H180V169.898Z" fill="#C20001"/>
<path d="M180 179.898H190V189.898H180V179.898Z" fill="#C20001"/>
<path d="M190 169.898H200V179.898H190V169.898Z" fill="#C20001"/>
<path d="M200 169.898H210V179.898H200V169.898Z" fill="#C20001"/>
<path d="M120 149.898H130V159.898H120V149.898Z" fill="#E5E5E5"/>
<path d="M120 159.898H130V169.898H120V159.898Z" fill="#E5E5E5"/>
<path d="M120 169.898H130V179.898H120V169.898Z" fill="#E5E5E5"/>
<path d="M100 169.898H110V179.898H100V169.898Z" fill="#E5E5E5"/>
<path d="M100 159.898H110V169.898H100V159.898Z" fill="#E5E5E5"/>
<path d="M100 149.898H110V159.898H100V149.898Z" fill="#E5E5E5"/>
<path d="M90 169.898H100V179.898H90V169.898Z" fill="#E5E5E5"/>
<path d="M90 159.898H100V169.898H90V159.898Z" fill="#E5E5E5"/>
<path d="M90 149.898H100V159.898H90V149.898Z" fill="#E5E5E5"/>
<path d="M80 169.898H90V179.898H80V169.898Z" fill="#E5E5E5"/>
<path d="M70 169.898H80V179.898H70V169.898Z" fill="#E5E5E5"/>
<path d="M70 179.898H80V189.898H70V179.898Z" fill="#E5E5E5"/>
<path d="M70 189.898H80V199.898H70V189.898Z" fill="#E5E5E5"/>
<path d="M60 169.898H70V179.898H60V169.898Z" fill="#E5E5E5"/>
<path d="M50 169.898H60V179.898H50V169.898Z" fill="#E5E5E5"/>
<path d="M60 179.898H70V189.898H60V179.898Z" fill="#E5E5E5"/>
<path d="M50 179.898H60V189.898H50V179.898Z" fill="#E5E5E5"/>
<path d="M60 189.898H70V199.898H60V189.898Z" fill="#E5E5E5"/>
<path d="M50 189.898H60V199.898H50V189.898Z" fill="#E5E5E5"/>
<path d="M80 159.898H90V169.898H80V159.898Z" fill="#E5E5E5"/>
<path d="M70 159.898H80V169.898H70V159.898Z" fill="#E5E5E5"/>
<path d="M60 159.898H70V169.898H60V159.898Z" fill="#E5E5E5"/>
<path d="M80 149.898H90V159.898H80V149.898Z" fill="#E5E5E5"/>
<path d="M70 149.898H80V159.898H70V149.898Z" fill="#E5E5E5"/>
<path d="M140 169.898H150V179.898H140V169.898Z" fill="#E5E5E5"/>
<path d="M160 169.898H170V179.898H160V169.898Z" fill="#E5E5E5"/>
<path d="M140 159.898H150V169.898H140V159.898Z" fill="#C20001"/>
<path d="M170 149.898H180V159.898H170V149.898Z" fill="#C20001"/>
<path d="M160 159.898H170V169.898H160V159.898Z" fill="#C20001"/>
<path d="M170 159.898H180V169.898H170V159.898Z" fill="#008F5A"/>
<path d="M210 179.898H220V189.898H210V179.898Z" fill="#C20001"/>
<path d="M210 199.898H220V209.898H210V199.898Z" fill="#C20001"/>
<path d="M200 179.898H210V189.898H200V179.898Z" fill="#008F5A"/>
<path d="M80 189.898H90V199.898H80V189.898Z" fill="#008F5A"/>
<path d="M210 189.898H220V199.898H210V189.898Z" fill="#008F5A"/>
<path d="M210 209.898H220V219.898H210V209.898Z" fill="#008F5A"/>
<path d="M170 209.898H180V219.898H170V209.898Z" fill="#008F5A"/>
<path d="M170 219.898H180V229.898H170V219.898Z" fill="#008F5A"/>
<path d="M170 229.898H180V239.898H170V229.898Z" fill="#008F5A"/>
<path d="M170 239.898H180V249.898H170V239.898Z" fill="#008F5A"/>
<path d="M160 209.898H170V219.898H160V209.898Z" fill="#008F5A"/>
<path d="M160 219.898H170V229.898H160V219.898Z" fill="#008F5A"/>
<path d="M160 229.898H170V239.898H160V229.898Z" fill="#008F5A"/>
<path d="M160 239.898H170V249.898H160V239.898Z" fill="#008F5A"/>
<path d="M160 249.898H170V259.898H160V249.898Z" fill="#008F5A"/>
<path d="M160 259.898H170V269.898H160V259.898Z" fill="#008F5A"/>
<path d="M180 259.898H190V269.898H180V259.898Z" fill="#008F5A"/>
<path d="M150 209.898H160V219.898H150V209.898Z" fill="#008F5A"/>
<path d="M150 219.898H160V229.898H150V219.898Z" fill="#008F5A"/>
<path d="M150 229.898H160V239.898H150V229.898Z" fill="#008F5A"/>
<path d="M150 239.898H160V249.898H150V239.898Z" fill="#008F5A"/>
<path d="M150 249.898H160V259.898H150V249.898Z" fill="#008F5A"/>
<path d="M150 259.898H160V269.898H150V259.898Z" fill="#008F5A"/>
<path d="M150 269.898H160V279.898H150V269.898Z" fill="#008F5A"/>
<path d="M160 269.898H170V279.898H160V269.898Z" fill="#4F514B"/>
<path d="M160 279.898H170V289.898H160V279.898Z" fill="#4F514B"/>
<path d="M160 289.898H170V299.898H160V289.898Z" fill="#4F514B"/>
<path d="M170 269.898H180V279.898H170V269.898Z" fill="#4F514B"/>
<path d="M170 279.898H180V289.898H170V279.898Z" fill="#4F514B"/>
<path d="M150 279.898H160V289.898H150V279.898Z" fill="#4F514B"/>
<path d="M170 289.898H180V299.898H170V289.898Z" fill="#4F514B"/>
<path d="M170 299.898H180V309.898H170V299.898Z" fill="#4F514B"/>
<path d="M190 299.898H200V309.898H190V299.898Z" fill="#4F514B"/>
<path d="M180 289.898H190V299.898H180V289.898Z" fill="#4F514B"/>
<path d="M190 289.898H200V299.898H190V289.898Z" fill="#4F514B"/>
<path d="M180 299.898H190V309.898H180V299.898Z" fill="#4F514B"/>
<path d="M200 299.898H210V309.898H200V299.898Z" fill="#4F514B"/>
<path d="M150 289.898H160V299.898H150V289.898Z" fill="#4F514B"/>
<path d="M150 299.898H160V309.898H150V299.898Z" fill="#4F514B"/>
<path d="M220 209.898H230V219.898H220V209.898Z" fill="#008F5A"/>
<path d="M220 219.898H230V229.898H220V219.898Z" fill="#008F5A"/>
<path d="M220 229.898H230V239.898H220V229.898Z" fill="#008F5A"/>
<path d="M220 239.898H230V249.898H220V239.898Z" fill="#008F5A"/>
<path d="M220 249.898H230V259.898H220V249.898Z" fill="#008F5A"/>
<path d="M230 209.898H240V219.898H230V209.898Z" fill="#008F5A"/>
<path d="M230 219.898H240V229.898H230V219.898Z" fill="#008F5A"/>
<path d="M230 229.898H240V239.898H230V229.898Z" fill="#008F5A"/>
<path d="M230 239.898H240V249.898H230V239.898Z" fill="#008F5A"/>
<path d="M150 159.898H160V169.898H150V159.898Z" fill="#008F5A"/>
<path d="M140 149.898H150V159.898H140V149.898Z" fill="#008F5A"/>
<path d="M190 139.898H200V149.898H190V139.898Z" fill="#E5E5E5"/>
<path d="M190 149.898H200V159.898H190V149.898Z" fill="#E5E5E5"/>
<path d="M190 159.898H200V169.898H190V159.898Z" fill="#E5E5E5"/>
<path d="M210 139.898H220V149.898H210V139.898Z" fill="#E5E5E5"/>
<path d="M210 149.898H220V159.898H210V149.898Z" fill="#E5E5E5"/>
<path d="M210 159.898H220V169.898H210V159.898Z" fill="#E5E5E5"/>
<path d="M180 139.898H190V149.898H180V139.898Z" fill="#E5E5E5"/>
<path d="M180 149.898H190V159.898H180V149.898Z" fill="#E5E5E5"/>
<path d="M180 159.898H190V169.898H180V159.898Z" fill="#E5E5E5"/>
<path d="M200 139.898H210V149.898H200V139.898Z" fill="#E5E5E5"/>
<path d="M200 149.898H210V159.898H200V149.898Z" fill="#E5E5E5"/>
<path d="M200 159.898H210V169.898H200V159.898Z" fill="#E5E5E5"/>
<path d="M220 139.898H230V149.898H220V139.898Z" fill="#E5E5E5"/>
<path d="M220 149.898H230V159.898H220V149.898Z" fill="#E5E5E5"/>
<path d="M230 149.898H240V159.898H230V149.898Z" fill="#E5E5E5"/>
<path d="M220 159.898H230V169.898H220V159.898Z" fill="#E5E5E5"/>
<path d="M220 169.898H230V179.898H220V169.898Z" fill="#E5E5E5"/>
<path d="M210 169.898H220V179.898H210V169.898Z" fill="#E5E5E5"/>
<path d="M220 179.898H230V189.898H220V179.898Z" fill="#E5E5E5"/>
<path d="M220 189.898H230V199.898H220V189.898Z" fill="#E5E5E5"/>
<path d="M220 199.898H230V209.898H220V199.898Z" fill="#E5E5E5"/>
<path d="M230 159.898H240V169.898H230V159.898Z" fill="#E5E5E5"/>
<path d="M230 169.898H240V179.898H230V169.898Z" fill="#E5E5E5"/>
<path d="M230 179.898H240V189.898H230V179.898Z" fill="#E5E5E5"/>
<path d="M230 189.898H240V199.898H230V189.898Z" fill="#E5E5E5"/>
<path d="M230 199.898H240V209.898H230V199.898Z" fill="#E5E5E5"/>
<path d="M240 159.898H250V169.898H240V159.898Z" fill="#E5E5E5"/>
<path d="M240 169.898H250V179.898H240V169.898Z" fill="#E5E5E5"/>
<path d="M240 179.898H250V189.898H240V179.898Z" fill="#E5E5E5"/>
<path d="M240 189.898H250V199.898H240V189.898Z" fill="#E5E5E5"/>
<path d="M180 129.898H190V139.898H180V129.898Z" fill="#E5E5E5"/>
<path d="M150 139.898H160V149.898H150V139.898Z" fill="#EBC8A2"/>
<path d="M180 89.8984H190V99.8984H180V89.8984Z" fill="#EBC8A2"/>
<path d="M180 99.8984H190V109.898H180V99.8984Z" fill="#EBC8A2"/>
<path d="M120 49.8984H130V59.8984H120V49.8984Z" fill="#361C1F"/>
<path d="M120 59.8984H130V69.8984H120V59.8984Z" fill="#361C1F"/>
<path d="M120 69.8984H130V79.8984H120V69.8984Z" fill="#361C1F"/>
<path d="M120 79.8984H130V89.8984H120V79.8984Z" fill="#361C1F"/>
<path d="M120 89.8984H130V99.8984H120V89.8984Z" fill="#361C1F"/>
<path d="M100 89.8984H110V99.8984H100V89.8984Z" fill="#361C1F"/>
<path d="M100 99.8984H110V109.898H100V99.8984Z" fill="#361C1F"/>
<path d="M100 109.898H110V119.898H100V109.898Z" fill="#361C1F"/>
<path d="M120 39.8984H130V49.8984H120V39.8984Z" fill="#361C1F"/>
<path d="M110 219.898H120V229.898H110V219.898Z" fill="#CFB05F"/>
<path d="M110 229.898H120V239.898H110V229.898Z" fill="#CFB05F"/>
<path d="M110 239.898H120V249.898H110V239.898Z" fill="#CFB05F"/>
<path d="M110 249.898H120V259.898H110V249.898Z" fill="#CFB05F"/>
<path d="M110 259.898H120V269.898H110V259.898Z" fill="#CFB05F"/>
<path d="M110 269.898H120V279.898H110V269.898Z" fill="#CFB05F"/>
<path d="M110 279.898H120V289.898H110V279.898Z" fill="#CFB05F"/>
<path d="M110 289.898H120V299.898H110V289.898Z" fill="#CFB05F"/>
<path d="M110 299.898H120V309.898H110V299.898Z" fill="#CFB05F"/>
<path d="M80 199.898H90V209.898H80V199.898Z" fill="#C20001"/>
<path d="M80 209.898H90V219.898H80V209.898Z" fill="#008F5A"/>
<path d="M70 199.898H80V209.898H70V199.898Z" fill="#E5E5E5"/>
<path d="M60 199.898H70V209.898H60V199.898Z" fill="#008F5A"/>
<path d="M140 209.898H150V219.898H140V209.898Z" fill="#008F5A"/>
<path d="M140 219.898H150V229.898H140V219.898Z" fill="#008F5A"/>
<path d="M140 229.898H150V239.898H140V229.898Z" fill="#008F5A"/>
<path d="M140 239.898H150V249.898H140V239.898Z" fill="#008F5A"/>
<path d="M130 209.898H140V219.898H130V209.898Z" fill="#008F5A"/>
<path d="M130 219.898H140V229.898H130V219.898Z" fill="#008F5A"/>
<path d="M130 229.898H140V239.898H130V229.898Z" fill="#008F5A"/>
<path d="M130 239.898H140V249.898H130V239.898Z" fill="#008F5A"/>
<path d="M130 249.898H140V259.898H130V249.898Z" fill="#008F5A"/>
<path d="M120 209.898H130V219.898H120V209.898Z" fill="#008F5A"/>
<path d="M120 219.898H130V229.898H120V219.898Z" fill="#008F5A"/>
<path d="M100 219.898H110V229.898H100V219.898Z" fill="#008F5A"/>
<path d="M90 219.898H100V229.898H90V219.898Z" fill="#008F5A"/>
<path d="M120 229.898H130V239.898H120V229.898Z" fill="#008F5A"/>
<path d="M100 229.898H110V239.898H100V229.898Z" fill="#008F5A"/>
<path d="M120 239.898H130V249.898H120V239.898Z" fill="#008F5A"/>
<path d="M100 239.898H110V249.898H100V239.898Z" fill="#008F5A"/>
<path d="M90 229.898H100V239.898H90V229.898Z" fill="#008F5A"/>
<path d="M80 219.898H90V229.898H80V219.898Z" fill="#008F5A"/>
<path d="M70 209.898H80V219.898H70V209.898Z" fill="#008F5A"/>
<path d="M120 249.898H130V259.898H120V249.898Z" fill="#008F5A"/>
<path d="M100 249.898H110V259.898H100V249.898Z" fill="#008F5A"/>
<path d="M30 249.898L30 239.898L20 239.898L20 249.898L30 249.898Z" fill="#4F514B"/>
<path d="M20 249.898L20 239.898L10 239.898L10 249.898L20 249.898Z" fill="#4F514B"/>
<path d="M30 239.898L30 229.898L20 229.898L20 239.898L30 239.898Z" fill="#4F514B"/>
<path d="M30 259.898L30 249.898L20 249.898L20 259.898L30 259.898Z" fill="#4F514B"/>
<path d="M20 239.898L20 229.898L10 229.898L10 239.898L20 239.898Z" fill="#4F514B"/>
<path d="M10 239.898L10 229.898L0 229.898L-4.37114e-07 239.898L10 239.898Z" fill="#4F514B"/>
<path d="M10 219.898L10 209.898L0 209.898L-4.37114e-07 219.898L10 219.898Z" fill="#4F514B"/>
<path d="M20 229.898L20 219.898L10 219.898L10 229.898L20 229.898Z" fill="#4F514B"/>
<path d="M20 219.898L20 209.898L10 209.898L10 219.898L20 219.898Z" fill="#4F514B"/>
<path d="M10 229.898L10 219.898L0 219.898L-4.37114e-07 229.898L10 229.898Z" fill="#4F514B"/>
<path d="M10 209.898L10 199.898L0 199.898L-4.37114e-07 209.898L10 209.898Z" fill="#4F514B"/>
<path d="M20 259.898L20 249.898L10 249.898L10 259.898L20 259.898Z" fill="#4F514B"/>
<path d="M10 259.898L10 249.898L0 249.898L-4.37114e-07 259.898L10 259.898Z" fill="#4F514B"/>
<path d="M90 239.898H100V249.898H90V239.898Z" fill="#008F5A"/>
<path d="M80 239.898H90V249.898H80V239.898Z" fill="#008F5A"/>
<path d="M80 249.898H90V259.898H80V249.898Z" fill="#008F5A"/>
<path d="M80 259.898H90V269.898H80V259.898Z" fill="#008F5A"/>
<path d="M90 259.898H100V269.898H90V259.898Z" fill="#008F5A"/>
<path d="M70 239.898H80V249.898H70V239.898Z" fill="#008F5A"/>
<path d="M60 239.898H70V249.898H60V239.898Z" fill="#C7B343"/>
<path d="M70 249.898H80V259.898H70V249.898Z" fill="#008F5A"/>
<path d="M70 259.898H80V269.898H70V259.898Z" fill="#008F5A"/>
<path d="M60 249.898H70V259.898H60V249.898Z" fill="#C7B343"/>
<path d="M50 249.898H60V259.898H50V249.898Z" fill="#C7B343"/>
<path d="M60 259.898H70V269.898H60V259.898Z" fill="#C7B343"/>
<path d="M50 259.898H60V269.898H50V259.898Z" fill="#C7B343"/>
<path d="M40 259.898H50V269.898H40V259.898Z" fill="#C7B343"/>
<path d="M20 249.898H30V259.898H20V249.898Z" fill="#4F514B"/>
<path d="M10 249.898H20V259.898H10V249.898Z" fill="#4F514B"/>
<path d="M80 229.898H90V239.898H80V229.898Z" fill="#008F5A"/>
<path d="M70 229.898H80V239.898H70V229.898Z" fill="#008F5A"/>
<path d="M70 219.898H80V229.898H70V219.898Z" fill="#008F5A"/>
<path d="M90 249.898H100V259.898H90V249.898Z" fill="#008F5A"/>
<path d="M70 209.898H60V219.898H70V209.898Z" fill="#008F5A"/>
<path d="M60 209.898H50V219.898H60V209.898Z" fill="#008F5A"/>
<path d="M50 209.898H40V219.898H50V209.898Z" fill="#008F5A"/>
<path d="M40 209.898H30V219.898H40V209.898Z" fill="#008F5A"/>
<path d="M60 199.898H50V209.898H60V199.898Z" fill="#008F5A"/>
<path d="M50 199.898H40V209.898H50V199.898Z" fill="#008F5A"/>
<path d="M70 219.898H60V229.898H70V219.898Z" fill="#008F5A"/>
<path d="M60 219.898H50V229.898H60V219.898Z" fill="#008F5A"/>
<path d="M50 219.898H40V229.898H50V219.898Z" fill="#008F5A"/>
<path d="M40 219.898H30V229.898H40V219.898Z" fill="#008F5A"/>
<path d="M70 229.898H60V239.898H70V229.898Z" fill="#008F5A"/>
<path d="M60 229.898H50V239.898H60V229.898Z" fill="#008F5A"/>
<path d="M50 229.898H40V239.898H50V229.898Z" fill="#008F5A"/>
<path d="M40 229.898H30V239.898H40V229.898Z" fill="#008F5A"/>
<path d="M70 239.898H60V249.898H70V239.898Z" fill="#008F5A"/>
<path d="M70 249.898H60V259.898H70V249.898Z" fill="#008F5A"/>
<path d="M70 259.898H60V269.898H70V259.898Z" fill="#008F5A"/>
<path d="M60 239.898H50V249.898H60V239.898Z" fill="#008F5A"/>
<path d="M50 239.898H40V249.898H50V239.898Z" fill="#008F5A"/>
<path d="M40 239.898H30V249.898H40V239.898Z" fill="#008F5A"/>
<path d="M60 249.898H50V259.898H60V249.898Z" fill="#008F5A"/>
<path d="M50 249.898H40V259.898H50V249.898Z" fill="#008F5A"/>
<path d="M40 249.898H30V259.898H40V249.898Z" fill="#008F5A"/>
<path d="M60 259.898H50V269.898H60V259.898Z" fill="#008F5A"/>
<path d="M50 259.898H40V269.898H50V259.898Z" fill="#008F5A"/>
</g>
</g>
<defs>
<clipPath id="clip0_39_1154">
<rect width="310" height="310" fill="white" transform="matrix(-1 0 0 1 310 0)"/>
</clipPath>
</defs>
</svg>
