<?xml version="1.0" encoding="UTF-8"?>
<svg xmlns="http://www.w3.org/2000/svg" version="1.1" viewBox="0 0 310 310">
  <defs>
    <style>
      .cls-1 {
        fill: #361c1f;
      }

      .cls-2 {
        fill: #008f5a;
      }

      .cls-3 {
        fill: #e5e5e5;
      }

      .cls-4 {
        fill: #c7b343;
      }

      .cls-5 {
        fill: #c20001;
      }

      .cls-6 {
        fill: #ebc8a2;
      }

      .cls-7 {
        fill: #4f514b;
      }

      .cls-8 {
        fill: #3a1213;
      }

      .cls-9 {
        fill: #cfb05f;
      }
    </style>
  </defs>
  <!-- Generator: Adobe Illustrator 28.6.0, SVG Export Plug-In . SVG Version: 1.2.0 Build 709)  -->
  <g>
    <g id="Layer_1">
      <polygon class="cls-4" points="10 260 10 289.9 20 289.9 20 299.9 60 299.9 60 289.9 70 289.9 70 279.9 80 279.9 80 270 40 270 40 269.9 30 269.9 30 260 10 260"/>
      <polygon class="cls-1" points="120 40 120 100 130 100 130 90 150 90 150 80 180 80 180 70 170 70 170 60 160 60 160 40 170 40 170 20 140 20 140 30 130 30 130 40 120 40"/>
      <polygon class="cls-8" points="80 110 80 130 90 130 90 140 100 140 100 150 110 150 110 120 90 120 90 110 80 110"/>
      <rect class="cls-9" x="110" y="220" width="10" height="90"/>
      <rect class="cls-9" x="110" y="30" width="10" height="160"/>
      <rect class="cls-5" x="100" y="0" width="30" height="30"/>
      <polygon class="cls-8" points="120 120 120 150 150 150 150 140 160 140 160 130 190 130 190 140 240 140 240 120 230 120 230 130 210 130 210 120 200 120 200 110 150 110 150 120 120 120"/>
      <polygon class="cls-6" points="170 190 170 200 180 200 180 220 210 220 210 190 170 190"/>
      <polygon class="cls-6" points="90 190 90 220 120 220 120 200 130 200 130 190 90 190"/>
      <polygon class="cls-5" points="180 220 180 260 190 260 190 270 220 270 220 220 180 220"/>
      <rect class="cls-5" x="100" y="180" width="10" height="10"/>
      <rect class="cls-2" x="90" y="180" width="10" height="10"/>
      <rect class="cls-5" x="80" y="180" width="10" height="10"/>
      <rect class="cls-5" x="80" y="200" width="10" height="10"/>
      <polygon class="cls-2" points="30 220 30 260 40 260 40 269.9 90 269.9 90 270 100 270 100 260 110 260 110 220 90 220 90 210 70 210 70 200 50 200 50 210 40 210 40 220 30 220"/>
      <rect class="cls-3" x="150" y="150" width="20" height="10"/>
      <polygon class="cls-3" points="120 150 120 180 180 180 180 170 140 170 140 150 120 150"/>
      <polygon class="cls-5" points="130 190 130 200 120 200 120 210 180 210 180 200 170 200 170 190 200 190 200 180 210 180 210 170 180 170 180 180 120 180 120 190 130 190"/>
      <polygon class="cls-3" points="50 170 50 200 70 200 70 210 80 210 80 180 110 180 110 150 70 150 70 160 60 160 60 170 50 170"/>
      <rect class="cls-5" x="140" y="160" width="10" height="10"/>
      <rect class="cls-5" x="170" y="150" width="10" height="10"/>
      <rect class="cls-5" x="160" y="160" width="10" height="10"/>
      <rect class="cls-2" x="170" y="160" width="10" height="10"/>
      <rect class="cls-5" x="210" y="180" width="10" height="10"/>
      <rect class="cls-5" x="210" y="200" width="10" height="10"/>
      <rect class="cls-2" x="200" y="180" width="10" height="10"/>
      <rect class="cls-2" x="80" y="190" width="10" height="10"/>
      <rect class="cls-2" x="210" y="190" width="10" height="10"/>
      <polygon class="cls-2" points="210 210 210 220 220 220 220 270 270 270 270 260 280 260 280 220 270 220 270 210 260 210 260 200 240 200 240 210 210 210"/>
      <polygon class="cls-2" points="120 210 120 260 140 260 140 250 170 250 170 260 180 260 180 210 120 210"/>
      <polygon class="cls-7" points="280 230 280 260 310 260 310 250 300 250 300 240 310 240 310 200 300 200 300 210 290 210 290 230 280 230"/>
      <polygon class="cls-7" points="0 200 0 240 10 240 10 250 0 250 0 260 10 260 10 259.9 30 259.9 30 230 20 230 20 210 10 210 10 200 0 200"/>
      <rect class="cls-2" x="150" y="160" width="10" height="10"/>
      <rect class="cls-2" x="140" y="150" width="10" height="10"/>
      <polygon class="cls-3" points="170 140 170 150 180 150 180 170 210 170 210 180 220 180 220 210 240 210 240 200 250 200 250 160 240 160 240 150 230 150 230 140 190 140 190 130 180 130 180 140 170 140"/>
      <polygon class="cls-6" points="150 140 150 150 170 150 170 140 180 140 180 130 160 130 160 140 150 140"/>
      <polygon class="cls-6" points="120 100 120 120 150 120 150 110 190 110 190 90 170 90 170 80 150 80 150 90 130 90 130 100 120 100"/>
      <rect class="cls-1" x="100" y="90" width="10" height="30"/>
    </g>
  </g>
</svg>