<?xml version="1.0" encoding="UTF-8"?>
<svg xmlns="http://www.w3.org/2000/svg" version="1.1" viewBox="0 0 310 310">
  <defs>
    <style>
      .cls-1 {
        fill: none;
      }

      .cls-2 {
        fill: #361c1f;
      }

      .cls-3 {
        fill: #008f5a;
      }

      .cls-4 {
        fill: #e5e5e5;
      }

      .cls-5 {
        fill: #c7b343;
      }

      .cls-6 {
        fill: #c20001;
      }

      .cls-7 {
        fill: #ebc8a2;
      }

      .cls-8 {
        fill: #4f514b;
      }

      .cls-9 {
        fill: #3a1213;
      }

      .cls-10 {
        fill: #cfb05f;
      }
    </style>
  </defs>
  <!-- Generator: Adobe Illustrator 28.6.0, SVG Export Plug-In . SVG Version: 1.2.0 Build 709)  -->
  <g>
    <g id="Layer_1">
      <path class="cls-1" d="M150,159.9v10h10v-10h-10ZM0,0v310h310V0H0ZM170,169.9v-20h20v30h-60v-10h40ZM150,129.9v10h10v10h-20v-10h-10v-10h20ZM250,159.9v10h10v30h-20v10h-10v-30h-30v-30h40v10h10Z"/>
      <g>
        <polygon class="cls-2" points="140 109.9 140 129.9 150 129.9 150 139.9 160 139.9 160 149.9 170 149.9 170 89.9 160 89.9 160 119.9 150 119.9 150 109.9 140 109.9"/>
        <rect class="cls-5" x="170" y="219.9" width="10" height="90"/>
        <rect class="cls-10" x="170" y="29.9" width="10" height="160"/>
        <rect class="cls-6" x="160" y="-.1" width="30" height="30"/>
        <polygon class="cls-9" points="180 119.9 180 149.9 210 149.9 210 139.9 220 139.9 220 129.9 250 129.9 250 139.9 300 139.9 300 119.9 290 119.9 290 129.9 270 129.9 270 119.9 260 119.9 260 109.9 210 109.9 210 119.9 180 119.9"/>
        <polygon class="cls-7" points="210 139.9 210 149.9 230 149.9 230 139.9 240 139.9 240 129.9 220 129.9 220 139.9 210 139.9"/>
        <polygon class="cls-7" points="230 189.9 230 199.9 240 199.9 240 219.9 270 219.9 270 189.9 230 189.9"/>
        <polygon class="cls-7" points="150 189.9 150 219.9 180 219.9 180 199.9 190 199.9 190 189.9 150 189.9"/>
        <polygon class="cls-6" points="240 219.9 240 259.9 250 259.9 250 269.9 280 269.9 280 219.9 240 219.9"/>
        <rect class="cls-6" x="160" y="179.9" width="10" height="10"/>
        <rect class="cls-3" x="150" y="179.9" width="10" height="10"/>
        <rect class="cls-6" x="140" y="179.9" width="10" height="10"/>
        <rect class="cls-6" x="140" y="199.9" width="10" height="10"/>
        <rect class="cls-3" x="140" y="209.9" width="10" height="10"/>
        <rect class="cls-4" x="220" y="149.9" width="10" height="10"/>
        <rect class="cls-4" x="210" y="149.9" width="10" height="10"/>
        <polygon class="cls-4" points="180 149.9 180 179.9 240 179.9 240 169.9 200 169.9 200 149.9 180 149.9"/>
        <polygon class="cls-6" points="190 189.9 190 199.9 180 199.9 180 209.9 240 209.9 240 199.9 230 199.9 230 189.9 260 189.9 260 179.9 270 179.9 270 169.9 240 169.9 240 179.9 180 179.9 180 189.9 190 189.9"/>
        <polygon class="cls-4" points="110 169.9 110 199.9 130 199.9 130 209.9 140 209.9 140 179.9 170 179.9 170 149.9 130 149.9 130 159.9 120 159.9 120 169.9 110 169.9"/>
        <rect class="cls-6" x="200" y="159.9" width="10" height="10"/>
        <rect class="cls-6" x="230" y="149.9" width="10" height="10"/>
        <rect class="cls-6" x="220" y="159.9" width="10" height="10"/>
        <rect class="cls-3" x="230" y="159.9" width="10" height="10"/>
        <rect class="cls-6" x="270" y="179.9" width="10" height="10"/>
        <rect class="cls-6" x="270" y="199.9" width="10" height="10"/>
        <rect class="cls-3" x="260" y="179.9" width="10" height="10"/>
        <rect class="cls-3" x="140" y="189.9" width="10" height="10"/>
        <rect class="cls-3" x="270" y="189.9" width="10" height="10"/>
        <polygon class="cls-3" points="270 209.9 270 219.9 280 219.9 280 259.9 290 259.9 290 249.9 300 249.9 300 209.9 270 209.9"/>
        <polygon class="cls-3" points="150 219.9 150 229.9 160 229.9 160 239.9 170 239.9 170 219.9 150 219.9"/>
        <polygon class="cls-8" points="130 209.9 130 229.9 140 229.9 140 239.9 150 239.9 150 249.9 160 249.9 160 259.9 170 259.9 170 239.9 160 239.9 160 229.9 150 229.9 150 219.9 140 219.9 140 209.9 130 209.9"/>
        <rect class="cls-8" x="120" y="199.9" width="10" height="10"/>
        <polygon class="cls-8" points="150 299.9 150 309.9 170 309.9 170 289.9 160 289.9 160 299.9 150 299.9"/>
        <polygon class="cls-8" points="180 279.9 180 309.9 190 309.9 190 299.9 200 299.9 200 309.9 220 309.9 220 299.9 230 299.9 230 309.9 270 309.9 270 299.9 260 299.9 260 289.9 240 289.9 240 269.9 220 269.9 220 279.9 180 279.9"/>
        <polygon class="cls-5" points="60 249.9 60 289.9 70 289.9 70 299.9 110 299.9 110 289.9 120 289.9 120 279.9 130 279.9 130 269.9 140 269.9 140 259.9 150 259.9 150 239.9 140 239.9 140 229.9 130 229.9 130 239.9 120 239.9 120 249.9 110 249.9 110 259.9 100 259.9 100 269.9 80 269.9 80 259.9 70 259.9 70 249.9 60 249.9"/>
        <polygon class="cls-3" points="140 259.9 140 269.9 150 269.9 150 279.9 170 279.9 170 259.9 160 259.9 160 249.9 150 249.9 150 259.9 140 259.9"/>
        <polygon class="cls-3" points="180 209.9 180 279.9 220 279.9 220 269.9 250 269.9 250 259.9 240 259.9 240 209.9 180 209.9"/>
        <rect class="cls-3" x="210" y="159.9" width="10" height="10"/>
        <rect class="cls-3" x="200" y="149.9" width="10" height="10"/>
        <polygon class="cls-4" points="230 139.9 230 149.9 240 149.9 240 169.9 270 169.9 270 179.9 280 179.9 280 209.9 300 209.9 300 199.9 310 199.9 310 159.9 300 159.9 300 149.9 290 149.9 290 139.9 250 139.9 250 129.9 240 129.9 240 139.9 230 139.9"/>
        <polygon class="cls-7" points="180 99.9 180 119.9 210 119.9 210 109.9 250 109.9 250 89.9 230 89.9 230 79.9 210 79.9 210 89.9 190 89.9 190 99.9 180 99.9"/>
        <polygon class="cls-2" points="180 39.9 180 99.9 190 99.9 190 89.9 210 89.9 210 79.9 240 79.9 240 69.9 230 69.9 230 59.9 220 59.9 220 39.9 230 39.9 230 19.9 200 19.9 200 29.9 190 29.9 190 39.9 180 39.9"/>
        <polygon class="cls-9" points="140 109.9 140 129.9 150 129.9 150 139.9 160 139.9 160 149.9 170 149.9 170 119.9 150 119.9 150 109.9 140 109.9"/>
      </g>
    </g>
  </g>
</svg>