<svg width="90" height="110" viewBox="0 0 90 110" fill="none" xmlns="http://www.w3.org/2000/svg">
<path d="M0 100H10V110H0V100Z" fill="#C20001"/>
<path d="M10 100H20V110H10V100Z" fill="#C20001"/>
<path d="M20 80H30V90H20V80Z" fill="#C20001"/>
<path d="M30 80H40V90H30V80Z" fill="#E5882C"/>
<path d="M20 100H30V110H20V100Z" fill="#E5882C"/>
<path d="M70 100H80V110H70V100Z" fill="#E5882C"/>
<path d="M30 100H40V110H30V100Z" fill="#DFC24A"/>
<path d="M40 100H50V110H40V100Z" fill="#DFC24A"/>
<path d="M40 80H50V90H40V80Z" fill="#DFC24A"/>
<path d="M50 100H60V110H50V100Z" fill="#DFC24A"/>
<path d="M50 80H60V90H50V80Z" fill="#DFC24A"/>
<path d="M60 100H70V110H60V100Z" fill="#DFC24A"/>
<path d="M30 60H40V70H30V60Z" fill="#C20001"/>
<path d="M0 80H10V90H0V80Z" fill="#C20001"/>
<path d="M10 80H20V90H10V80Z" fill="#C20001"/>
<path d="M20 60H30V70H20V60Z" fill="#C20001"/>
<path d="M30 40H40V50H30V40Z" fill="#C20001"/>
<path d="M0 90H10V100H0V90Z" fill="#C20001"/>
<path d="M10 90H20V100H10V90Z" fill="#C20001"/>
<path d="M20 70H30V80H20V70Z" fill="#C20001"/>
<path d="M30 70H40V80H30V70Z" fill="#E5882C"/>
<path d="M20 90H30V100H20V90Z" fill="#E5882C"/>
<path d="M70 90H80V100H70V90Z" fill="#E5882C"/>
<path d="M30 90H40V100H30V90Z" fill="#E5882C"/>
<path d="M40 90H50V100H40V90Z" fill="#DFC24A"/>
<path d="M40 70H50V80H40V70Z" fill="#DFC24A"/>
<path d="M40 60H50V70H40V60Z" fill="#DFC24A"/>
<path d="M40 50H50V60H40V50Z" fill="#E5882C"/>
<path d="M40 40H50V50H40V40Z" fill="#C20001"/>
<path d="M40 30H50V40H40V30Z" fill="#C20001"/>
<path d="M30 30H40V40H30V30Z" fill="#C20001"/>
<path d="M40 20H50V30H40V20Z" fill="#C20001"/>
<path d="M40 10H50V20H40V10Z" fill="#C20001"/>
<path d="M50 30H60V40H50V30Z" fill="#C20001"/>
<path d="M50 40H60V50H50V40Z" fill="#C20001"/>
<path d="M50 50H60V60H50V50Z" fill="#C20001"/>
<path d="M60 50H70V60H60V50Z" fill="#C20001"/>
<path d="M70 50H80V60H70V50Z" fill="#C20001"/>
<path d="M70 40H80V50H70V40Z" fill="#C20001"/>
<path d="M50 60H60V70H50V60Z" fill="#C20001"/>
<path d="M60 60H70V70H60V60Z" fill="#C20001"/>
<path d="M60 70H70V80H60V70Z" fill="#C20001"/>
<path d="M60 80H70V90H60V80Z" fill="#C20001"/>
<path d="M70 60H80V70H70V60Z" fill="#C20001"/>
<path d="M70 70H80V80H70V70Z" fill="#C20001"/>
<path d="M80 70H90V80H80V70Z" fill="#C20001"/>
<path d="M80 90H90V100H80V90Z" fill="#C20001"/>
<path d="M70 80H80V90H70V80Z" fill="#C20001"/>
<path d="M80 80H90V90H80V80Z" fill="#C20001"/>
<path d="M80 100H90V110H80V100Z" fill="#C20001"/>
<path d="M50 20H60V30H50V20Z" fill="#C20001"/>
<path d="M60 20H70V30H60V20Z" fill="#C20001"/>
<path d="M50 10H60V20H50V10Z" fill="#C20001"/>
<path d="M50 0H60V10H50V0Z" fill="#C20001"/>
<path d="M50 90H60V100H50V90Z" fill="#DFC24A"/>
<path d="M50 70H60V80H50V70Z" fill="#E5882C"/>
<path d="M60 90H70V100H60V90Z" fill="#DFC24A"/>
<path d="M20 40H30V50H20V40Z" fill="#C20001"/>
<path d="M30 50H40V60H30V50Z" fill="#C20001"/>
<path d="M0 70H10V80H0V70Z" fill="#C20001"/>
</svg>
