<svg width="230" height="140" viewBox="0 0 230 140" fill="none" xmlns="http://www.w3.org/2000/svg">
<path d="M40 110H30V120H40V110Z" fill="#E5E5E5"/>
<path d="M30 120H20V130H30V120Z" fill="#E5E5E5"/>
<path d="M20 120H10V130H20V120Z" fill="#D23805"/>
<path d="M200 120H190V130H200V120Z" fill="#D23805"/>
<path d="M210 120H200V130H210V120Z" fill="#D23805"/>
<path d="M220 120H210V130H220V120Z" fill="#D23805"/>
<path d="M230 120H220V130H230V120Z" fill="#D23805"/>
<path d="M10 120H0V130H10V120Z" fill="#D23805"/>
<path d="M40 120H30V130H40V120Z" fill="#E5E5E5"/>
<path d="M50 110H40V120H50V110Z" fill="#E5E5E5"/>
<path d="M50 120H40V130H50V120Z" fill="#E5E5E5"/>
<path d="M60 120H50V130H60V120Z" fill="#E5E5E5"/>
<path d="M70 120H60V130H70V120Z" fill="#E5E5E5"/>
<path d="M80 120H70V130H80V120Z" fill="#E5E5E5"/>
<path d="M90 110H80V120H90V110Z" fill="#E5E5E5"/>
<path d="M100 110H90V120H100V110Z" fill="#E5E5E5"/>
<path d="M110 110H100V120H110V110Z" fill="#E5E5E5"/>
<path d="M120 110H110V120H120V110Z" fill="#E5E5E5"/>
<path d="M130 110H120V120H130V110Z" fill="#E5E5E5"/>
<path d="M140 110H130V120H140V110Z" fill="#E5E5E5"/>
<path d="M150 110H140V120H150V110Z" fill="#E5E5E5"/>
<path d="M160 100H150V110H160V100Z" fill="#282727"/>
<path d="M160 90H150V100H160V90Z" fill="#282727"/>
<path d="M160 80H150V90H160V80Z" fill="#282727"/>
<path d="M160 70H150V80H160V70Z" fill="#282727"/>
<path d="M160 60H150V70H160V60Z" fill="#282727"/>
<path d="M160 30H150V40H160V30Z" fill="#282727"/>
<path d="M160 40H150V50H160V40Z" fill="#282727"/>
<path d="M160 50H150V60H160V50Z" fill="#282727"/>
<path d="M150 70H140V80H150V70Z" fill="#282727"/>
<path d="M150 60H140V70H150V60Z" fill="#282727"/>
<path d="M150 30H140V40H150V30Z" fill="#282727"/>
<path d="M150 20H140V30H150V20Z" fill="#282727"/>
<path d="M130 30H120V40H130V30Z" fill="#282727"/>
<path d="M130 20H120V30H130V20Z" fill="#282727"/>
<path d="M130 10H120V20H130V10Z" fill="#282727"/>
<path d="M130 0H120V10H130V0Z" fill="#282727"/>
<path d="M150 40H140V50H150V40Z" fill="#282727"/>
<path d="M150 50H140V60H150V50Z" fill="#282727"/>
<path d="M140 30H130V40H140V30Z" fill="#282727"/>
<path d="M140 20H130V30H140V20Z" fill="#282727"/>
<path d="M140 10H130V20H140V10Z" fill="#282727"/>
<path d="M120 30H110V40H120V30Z" fill="#282727"/>
<path d="M120 20H110V30H120V20Z" fill="#282727"/>
<path d="M120 10H110V20H120V10Z" fill="#282727"/>
<path d="M120 0H110V10H120V0Z" fill="#282727"/>
<path d="M140 40H130V50H140V40Z" fill="#282727"/>
<path d="M170 100H160V110H170V100Z" fill="#282727"/>
<path d="M180 100H170V110H180V100Z" fill="#282727"/>
<path d="M170 90H160V100H170V90Z" fill="#282727"/>
<path d="M180 90H170V100H180V90Z" fill="#282727"/>
<path d="M170 80H160V90H170V80Z" fill="#282727"/>
<path d="M170 70H160V80H170V70Z" fill="#282727"/>
<path d="M170 60H160V70H170V60Z" fill="#282727"/>
<path d="M170 50H160V60H170V50Z" fill="#282727"/>
<path d="M180 80H170V90H180V80Z" fill="#282727"/>
<path d="M150 120H140V130H150V120Z" fill="#E5E5E5"/>
<path d="M150 130H140V140H150V130Z" fill="#E5E5E5"/>
<path d="M120 120H110V130H120V120Z" fill="#E5E5E5"/>
<path d="M120 130H110V140H120V130Z" fill="#E5E5E5"/>
<path d="M90 130H80V140H90V130Z" fill="#E5E5E5"/>
<path d="M160 120H150V130H160V120Z" fill="#E5E5E5"/>
<path d="M160 130H150V140H160V130Z" fill="#E5E5E5"/>
<path d="M130 120H120V130H130V120Z" fill="#E5E5E5"/>
<path d="M130 130H120V140H130V130Z" fill="#E5E5E5"/>
<path d="M100 130H90V140H100V130Z" fill="#E5E5E5"/>
<path d="M170 120H160V130H170V120Z" fill="#E5E5E5"/>
<path d="M140 120H130V130H140V120Z" fill="#E5E5E5"/>
<path d="M140 130H130V140H140V130Z" fill="#E5E5E5"/>
<path d="M110 130H100V140H110V130Z" fill="#E5E5E5"/>
<path d="M100 100H90V110H100V100Z" fill="#E5E5E5"/>
<path d="M110 100H100V110H110V100Z" fill="#E5E5E5"/>
<path d="M120 100H110V110H120V100Z" fill="#E5E5E5"/>
<path d="M130 100H120V110H130V100Z" fill="#E5E5E5"/>
<path d="M140 100H130V110H140V100Z" fill="#E5E5E5"/>
<path d="M150 100H140V110H150V100Z" fill="#E5E5E5"/>
<path d="M160 110H150V120H160V110Z" fill="#E5E5E5"/>
<path d="M170 110H160V120H170V110Z" fill="#E5E5E5"/>
<path d="M180 110H170V120H180V110Z" fill="#E5E5E5"/>
<path d="M180 120H170V130H180V120Z" fill="#E5E5E5"/>
<path d="M190 120H180V130H190V120Z" fill="#E5E5E5"/>
<path d="M110 90H100V100H110V90Z" fill="#E5E5E5"/>
<path d="M110 80H100V90H110V80Z" fill="#E5E5E5"/>
<path d="M120 90H110V100H120V90Z" fill="#E5E5E5"/>
<path d="M130 90H120V100H130V90Z" fill="#E5E5E5"/>
<path d="M140 90H130V100H140V90Z" fill="#E5E5E5"/>
<path d="M120 80H110V90H120V80Z" fill="#E5E5E5"/>
<path d="M130 80H120V90H130V80Z" fill="#E5E5E5"/>
<path d="M140 80H130V90H140V80Z" fill="#E5E5E5"/>
<path d="M150 80H140V90H150V80Z" fill="#E5E5E5"/>
<path d="M150 90H140V100H150V90Z" fill="#E5E5E5"/>
<path d="M120 70H110V80H120V70Z" fill="#E5E5E5"/>
<path d="M130 70H120V80H130V70Z" fill="#E5E5E5"/>
<path d="M120 60H110V70H120V60Z" fill="#E5E5E5"/>
<path d="M130 60H120V70H130V60Z" fill="#E5E5E5"/>
<path d="M140 60H130V70H140V60Z" fill="#E5E5E5"/>
<path d="M140 70H130V80H140V70Z" fill="#E5E5E5"/>
<path d="M120 50H110V60H120V50Z" fill="#E5E5E5"/>
<path d="M130 50H120V60H130V50Z" fill="#E5E5E5"/>
<path d="M140 50H130V60H140V50Z" fill="#E5E5E5"/>
<path d="M120 40H110V50H120V40Z" fill="#E5E5E5"/>
<path d="M130 40H120V50H130V40Z" fill="#E5E5E5"/>
<path d="M160 100H150V110H160V100Z" fill="#282727"/>
<path d="M160 90H150V100H160V90Z" fill="#282727"/>
<path d="M160 80H150V90H160V80Z" fill="#282727"/>
<path d="M160 70H150V80H160V70Z" fill="#282727"/>
<path d="M160 60H150V70H160V60Z" fill="#282727"/>
<path d="M160 30H150V40H160V30Z" fill="#282727"/>
<path d="M160 40H150V50H160V40Z" fill="#282727"/>
<path d="M160 50H150V60H160V50Z" fill="#282727"/>
<path d="M150 70H140V80H150V70Z" fill="#282727"/>
<path d="M150 60H140V70H150V60Z" fill="#282727"/>
<path d="M150 30H140V40H150V30Z" fill="#282727"/>
<path d="M150 20H140V30H150V20Z" fill="#282727"/>
<path d="M130 30H120V40H130V30Z" fill="#282727"/>
<path d="M130 20H120V30H130V20Z" fill="#282727"/>
<path d="M130 10H120V20H130V10Z" fill="#282727"/>
<path d="M130 0H120V10H130V0Z" fill="#282727"/>
<path d="M150 40H140V50H150V40Z" fill="#282727"/>
<path d="M150 50H140V60H150V50Z" fill="#282727"/>
<path d="M140 30H130V40H140V30Z" fill="#282727"/>
<path d="M140 20H130V30H140V20Z" fill="#282727"/>
<path d="M140 10H130V20H140V10Z" fill="#282727"/>
<path d="M120 30H110V40H120V30Z" fill="#282727"/>
<path d="M120 20H110V30H120V20Z" fill="#282727"/>
<path d="M120 10H110V20H120V10Z" fill="#282727"/>
<path d="M120 0H110V10H120V0Z" fill="#282727"/>
<path d="M140 40H130V50H140V40Z" fill="#282727"/>
<path d="M170 100H160V110H170V100Z" fill="#282727"/>
<path d="M180 100H170V110H180V100Z" fill="#282727"/>
<path d="M170 90H160V100H170V90Z" fill="#282727"/>
<path d="M180 90H170V100H180V90Z" fill="#282727"/>
<path d="M170 80H160V90H170V80Z" fill="#282727"/>
<path d="M170 70H160V80H170V70Z" fill="#282727"/>
<path d="M170 60H160V70H170V60Z" fill="#282727"/>
<path d="M170 50H160V60H170V50Z" fill="#282727"/>
<path d="M180 80H170V90H180V80Z" fill="#282727"/>
<path d="M100 100H90V110H100V100Z" fill="#E5E5E5"/>
<path d="M110 100H100V110H110V100Z" fill="#E5E5E5"/>
<path d="M120 100H110V110H120V100Z" fill="#E5E5E5"/>
<path d="M130 100H120V110H130V100Z" fill="#E5E5E5"/>
<path d="M140 100H130V110H140V100Z" fill="#E5E5E5"/>
<path d="M150 100H140V110H150V100Z" fill="#E5E5E5"/>
<path d="M110 90H100V100H110V90Z" fill="#E5E5E5"/>
<path d="M110 80H100V90H110V80Z" fill="#E5E5E5"/>
<path d="M120 90H110V100H120V90Z" fill="#E5E5E5"/>
<path d="M130 90H120V100H130V90Z" fill="#E5E5E5"/>
<path d="M140 90H130V100H140V90Z" fill="#E5E5E5"/>
<path d="M120 80H110V90H120V80Z" fill="#E5E5E5"/>
<path d="M130 80H120V90H130V80Z" fill="#E5E5E5"/>
<path d="M140 80H130V90H140V80Z" fill="#E5E5E5"/>
<path d="M150 80H140V90H150V80Z" fill="#E5E5E5"/>
<path d="M150 90H140V100H150V90Z" fill="#E5E5E5"/>
<path d="M120 70H110V80H120V70Z" fill="#E5E5E5"/>
<path d="M130 70H120V80H130V70Z" fill="#E5E5E5"/>
<path d="M120 60H110V70H120V60Z" fill="#E5E5E5"/>
<path d="M130 60H120V70H130V60Z" fill="#E5E5E5"/>
<path d="M140 60H130V70H140V60Z" fill="#E5E5E5"/>
<path d="M140 70H130V80H140V70Z" fill="#E5E5E5"/>
<path d="M120 50H110V60H120V50Z" fill="#E5E5E5"/>
<path d="M130 50H120V60H130V50Z" fill="#E5E5E5"/>
<path d="M140 50H130V60H140V50Z" fill="#E5E5E5"/>
<path d="M120 40H110V50H120V40Z" fill="#E5E5E5"/>
<path d="M130 40H120V50H130V40Z" fill="#E5E5E5"/>
<path d="M90 120H80V130H90V120Z" fill="#E5E5E5"/>
<path d="M100 120H90V130H100V120Z" fill="#E5E5E5"/>
<path d="M110 120H100V130H110V120Z" fill="#E5E5E5"/>
</svg>
