<svg width="230" height="100" viewBox="0 0 230 100" fill="none" xmlns="http://www.w3.org/2000/svg">
<path d="M40 10H30V20H40V10Z" fill="#E5E5E5"/>
<path d="M30 20H20V30H30V20Z" fill="#E5E5E5"/>
<path d="M20 20H10V30H20V20Z" fill="#D23805"/>
<path d="M200 20H190V30H200V20Z" fill="#D23805"/>
<path d="M210 20H200V30H210V20Z" fill="#D23805"/>
<path d="M220 20H210V30H220V20Z" fill="#D23805"/>
<path d="M230 20H220V30H230V20Z" fill="#D23805"/>
<path d="M10 20H0V30H10V20Z" fill="#D23805"/>
<path d="M40 20H30V30H40V20Z" fill="#E5E5E5"/>
<path d="M50 10H40V20H50V10Z" fill="#E5E5E5"/>
<path d="M50 20H40V30H50V20Z" fill="#E5E5E5"/>
<path d="M60 20H50V30H60V20Z" fill="#E5E5E5"/>
<path d="M70 20H60V30H70V20Z" fill="#E5E5E5"/>
<path d="M80 20H70V30H80V20Z" fill="#E5E5E5"/>
<path d="M90 10H80V20H90V10Z" fill="#E5E5E5"/>
<path d="M100 10H90V20H100V10Z" fill="#E5E5E5"/>
<path d="M110 10H100V20H110V10Z" fill="#E5E5E5"/>
<path d="M120 10H110V20H120V10Z" fill="#E5E5E5"/>
<path d="M130 10H120V20H130V10Z" fill="#E5E5E5"/>
<path d="M140 10H130V20H140V10Z" fill="#E5E5E5"/>
<path d="M150 10H140V20H150V10Z" fill="#E5E5E5"/>
<path d="M160 0H150V10H160V0Z" fill="#E5E5E5"/>
<path d="M150 20H140V30H150V20Z" fill="#282727"/>
<path d="M150 30H140V40H150V30Z" fill="#282727"/>
<path d="M150 40H140V50H150V40Z" fill="#282727"/>
<path d="M159.58 40H149.58V50H159.58V40Z" fill="#282727"/>
<path d="M120 20H110V30H120V20Z" fill="#E5E5E5"/>
<path d="M120 50H110V60H120V50Z" fill="#282727"/>
<path d="M120 60H110V70H120V60Z" fill="#282727"/>
<path d="M120 70H110V80H120V70Z" fill="#282727"/>
<path d="M90 30H80V40H90V30Z" fill="#E5E5E5"/>
<path d="M90 40H80V50H90V40Z" fill="#E5E5E5"/>
<path d="M90 50H80V60H90V50Z" fill="#E5E5E5"/>
<path d="M100.58 50.001H89.5801V60.001H100.58V50.001Z" fill="#E5E5E5"/>
<path d="M90 60H80V70H90V60Z" fill="#282727"/>
<path d="M90 70H80V80H90V70Z" fill="#282727"/>
<path d="M90 80H80V90H90V80Z" fill="#282727"/>
<path d="M90 90H80V100H90V90Z" fill="#282727"/>
<path d="M80 30H70V40H80V30Z" fill="#E5E5E5"/>
<path d="M80 40H70V50H80V40Z" fill="#E5E5E5"/>
<path d="M80 50H70V60H80V50Z" fill="#E5E5E5"/>
<path d="M70 50H60V60H70V50Z" fill="#E5E5E5"/>
<path d="M70 60H60V70H70V60Z" fill="#E5E5E5"/>
<path d="M80.5801 60.001H69.5801V70.001H80.5801V60.001Z" fill="#E5E5E5"/>
<path d="M80 70H70V80H80V70Z" fill="#282727"/>
<path d="M80 80H70V90H80V80Z" fill="#282727"/>
<path d="M80 90H70V100H80V90Z" fill="#282727"/>
<path d="M70 70H60V80H70V70Z" fill="#282727"/>
<path d="M70 60H60V70H70V60Z" fill="#282727"/>
<path d="M82 60H70V70H82V60Z" fill="#282727"/>
<path d="M70 80H60V90H70V80Z" fill="#282727"/>
<path d="M70 90H60V100H70V90Z" fill="#282727"/>
<path d="M160 20H150V30H160V20Z" fill="#282727"/>
<path d="M160 30H150V40H160V30Z" fill="#282727"/>
<path d="M169.58 30H159.58V40H169.58V30Z" fill="#282727"/>
<path d="M130 20H120V30H130V20Z" fill="#E5E5E5"/>
<path d="M140.58 20.001H129.58V30.001H140.58V20.001Z" fill="#E5E5E5"/>
<path d="M130 40H120V50H130V40Z" fill="#282727"/>
<path d="M130 50H120V60H130V50Z" fill="#282727"/>
<path d="M130 60H120V70H130V60Z" fill="#282727"/>
<path d="M139.58 60H129.58V70H139.58V60Z" fill="#282727"/>
<path d="M100 30H90V40H100V30Z" fill="#E5E5E5"/>
<path d="M100 40H90V50H100V40Z" fill="#E5E5E5"/>
<path d="M110.58 40.001H99.5801V50.001H110.58V40.001Z" fill="#E5E5E5"/>
<path d="M121.58 40.001H110.58V50.001H121.58V40.001Z" fill="#E5E5E5"/>
<path d="M100 60H90V70H100V60Z" fill="#282727"/>
<path d="M100 70H90V80H100V70Z" fill="#282727"/>
<path d="M100 80H90V90H100V80Z" fill="#282727"/>
<path d="M100 90H90V100H100V90Z" fill="#282727"/>
<path d="M169.58 20H159.58V30H169.58V20Z" fill="#282727"/>
<path d="M140 30H130V40H140V30Z" fill="#282727"/>
<path d="M140 40H130V50H140V40Z" fill="#282727"/>
<path d="M140 50H130V60H140V50Z" fill="#282727"/>
<path d="M149.58 50H139.58V60H149.58V50Z" fill="#282727"/>
<path d="M110 30H100V40H110V30Z" fill="#E5E5E5"/>
<path d="M120.58 30.001H109.58V40.001H120.58V30.001Z" fill="#E5E5E5"/>
<path d="M130.58 30.001H119.58V40.001H130.58V30.001Z" fill="#E5E5E5"/>
<path d="M110 50H100V60H110V50Z" fill="#282727"/>
<path d="M110 60H100V70H110V60Z" fill="#282727"/>
<path d="M110 70H100V80H110V70Z" fill="#282727"/>
<path d="M110 80H100V90H110V80Z" fill="#282727"/>
<path d="M100 0H90V10H100V0Z" fill="#E5E5E5"/>
<path d="M110 0H100V10H110V0Z" fill="#E5E5E5"/>
<path d="M120 0H110V10H120V0Z" fill="#E5E5E5"/>
<path d="M130 0H120V10H130V0Z" fill="#E5E5E5"/>
<path d="M140 0H130V10H140V0Z" fill="#E5E5E5"/>
<path d="M150 0H140V10H150V0Z" fill="#E5E5E5"/>
<path d="M160 10H150V20H160V10Z" fill="#E5E5E5"/>
<path d="M170 10H160V20H170V10Z" fill="#E5E5E5"/>
<path d="M180 10H170V20H180V10Z" fill="#E5E5E5"/>
<path d="M180.58 20H169.58V30H180.58V20Z" fill="#E5E5E5"/>
<path d="M190 20H180V30H190V20Z" fill="#E5E5E5"/>
<path d="M90 20H80V30H90V20Z" fill="#E5E5E5"/>
<path d="M100 20H90V30H100V20Z" fill="#E5E5E5"/>
<path d="M110 20H100V30H110V20Z" fill="#E5E5E5"/>
</svg>
